<?xml version="1.0" encoding="UTF-8"?>
<!DOCTYPE svg PUBLIC "-//W3C//DTD SVG 1.1//EN" "http://www.w3.org/Graphics/SVG/1.1/DTD/svg11.dtd">
<svg xmlns="http://www.w3.org/2000/svg" version="1.1" width="64px" height="64px" style="shape-rendering:geometricPrecision; text-rendering:geometricPrecision; image-rendering:optimizeQuality; fill-rule:evenodd; clip-rule:evenodd" xmlns:xlink="http://www.w3.org/1999/xlink">
<g><path style="opacity:1" fill="#746470" d="M 33.5,7.5 C 34.4916,7.32842 35.1583,7.66175 35.5,8.5C 35.7751,10.7583 36.7751,11.0916 38.5,9.5C 39.735,10.3398 40.735,11.3398 41.5,12.5C 41.5,13.1667 41.5,13.8333 41.5,14.5C 40.596,15.209 40.2627,16.209 40.5,17.5C 41.5,17.5 42.5,17.5 43.5,17.5C 43.5,18.8333 43.5,20.1667 43.5,21.5C 42.5,21.5 41.5,21.5 40.5,21.5C 40.2627,22.791 40.596,23.791 41.5,24.5C 41.6602,26.1992 41.4935,27.8659 41,29.5C 39.7083,30.7911 38.5417,30.7911 37.5,29.5C 34.6273,28.1096 32.9606,29.1096 32.5,32.5C 31.1667,32.5 29.8333,32.5 28.5,32.5C 27.6618,32.1583 27.3284,31.4916 27.5,30.5C 27.9382,30.5654 28.2716,30.3988 28.5,30C 26.7017,28.4947 24.8684,28.3281 23,29.5C 21.9808,27.4982 21.1475,25.4982 20.5,23.5C 20.1788,21.9519 19.1788,21.2852 17.5,21.5C 17.5,20.1667 17.5,18.8333 17.5,17.5C 18.675,17.719 19.675,17.3857 20.5,16.5C 21.4269,14.5095 21.5936,12.5095 21,10.5C 23.1086,10.4339 25.2753,10.1005 27.5,9.5C 28.3857,8.67504 28.719,7.67504 28.5,6.5C 29.8333,6.5 31.1667,6.5 32.5,6.5C 32.281,7.67504 32.6143,8.67504 33.5,9.5C 34.463,9.03017 34.463,8.3635 33.5,7.5 Z"/></g>
<g><path style="opacity:0.54" fill="#3f3162" d="M 41.5,10.5 C 41.5,11.1667 41.5,11.8333 41.5,12.5C 40.735,11.3398 39.735,10.3398 38.5,9.5C 36.7751,11.0916 35.7751,10.7583 35.5,8.5C 38.2376,6.86613 40.2376,7.53279 41.5,10.5 Z"/></g>
<g><path style="opacity:1" fill="#56486f" d="M 36.5,16.5 C 33.9038,13.7663 30.9038,13.0996 27.5,14.5C 26.2617,14.19 26.2617,13.69 27.5,13C 29.5,12.3333 31.5,12.3333 33.5,13C 35.4257,13.4224 36.4257,14.5891 36.5,16.5 Z"/></g>
<g><path style="opacity:0.874" fill="#dcdce0" d="M 41.5,10.5 C 44.3787,11.8026 45.0454,13.8026 43.5,16.5C 42.1667,16.5 41.5,15.8333 41.5,14.5C 41.5,13.8333 41.5,13.1667 41.5,12.5C 41.5,11.8333 41.5,11.1667 41.5,10.5 Z"/></g>
<g><path style="opacity:1" fill="#ececee" d="M 36.5,16.5 C 36.93,24.1131 33.5966,26.6131 26.5,24C 23.6749,20.4764 24.0082,17.3097 27.5,14.5C 30.9038,13.0996 33.9038,13.7663 36.5,16.5 Z"/></g>
<g><path style="opacity:1" fill="#6ac1ef" d="M 16.5,21.5 C 14.1667,21.5 11.8333,21.5 9.5,21.5C 9.5,30.8333 9.5,40.1667 9.5,49.5C 8.17211,44.7124 7.50544,39.5457 7.5,34C 7.66667,28.8333 7.83333,23.6667 8,18.5C 10.7191,17.5562 13.5525,17.2229 16.5,17.5C 16.5,18.8333 16.5,20.1667 16.5,21.5 Z"/></g>
<g><path style="opacity:1" fill="#69bcea" d="M 50.5,39.5 C 50.5,36.8333 50.5,34.1667 50.5,31.5C 51.4794,28.3752 51.8128,25.0419 51.5,21.5C 49.1667,21.5 46.8333,21.5 44.5,21.5C 44.5,20.1667 44.5,18.8333 44.5,17.5C 47.4475,17.2229 50.2809,17.5562 53,18.5C 53.8323,28.8494 53.6656,39.1828 52.5,49.5C 51.8328,46.0227 51.1661,42.6893 50.5,39.5 Z"/></g>
<g><path style="opacity:1" fill="#4a4b7b" d="M 41.5,14.5 C 41.5,15.8333 42.1667,16.5 43.5,16.5C 46.8499,16.335 50.1832,16.5017 53.5,17C 54.056,17.3826 54.3893,17.8826 54.5,18.5C 54.5,28.8333 54.5,39.1667 54.5,49.5C 55.5,49.5 56.5,49.5 57.5,49.5C 59.1788,49.2852 60.1788,49.9519 60.5,51.5C 59.8571,53.0764 58.8571,54.4097 57.5,55.5C 57.5,55.1667 57.5,54.8333 57.5,54.5C 58.2341,53.2921 58.5674,51.9587 58.5,50.5C 55.8333,50.5 53.1667,50.5 50.5,50.5C 50.5,50.1667 50.5,49.8333 50.5,49.5C 50.5,46.1667 50.5,42.8333 50.5,39.5C 51.1661,42.6893 51.8328,46.0227 52.5,49.5C 53.6656,39.1828 53.8323,28.8494 53,18.5C 50.2809,17.5562 47.4475,17.2229 44.5,17.5C 44.5,18.8333 44.5,20.1667 44.5,21.5C 46.8333,21.5 49.1667,21.5 51.5,21.5C 51.8128,25.0419 51.4794,28.3752 50.5,31.5C 50.5,28.5 50.5,25.5 50.5,22.5C 46.9878,21.9455 43.9878,22.6122 41.5,24.5C 40.596,23.791 40.2627,22.791 40.5,21.5C 41.5,21.5 42.5,21.5 43.5,21.5C 43.5,20.1667 43.5,18.8333 43.5,17.5C 42.5,17.5 41.5,17.5 40.5,17.5C 40.2627,16.209 40.596,15.209 41.5,14.5 Z"/></g>
<g><path style="opacity:0.996" fill="#dddde1" d="M 54.5,18.5 C 55.4584,18.9528 56.2917,19.6195 57,20.5C 57.4998,30.1609 57.6665,39.8276 57.5,49.5C 56.5,49.5 55.5,49.5 54.5,49.5C 54.5,39.1667 54.5,28.8333 54.5,18.5 Z"/></g>
<g><path style="opacity:1" fill="#525f8d" d="M 16.5,21.5 C 16.8333,21.5 17.1667,21.5 17.5,21.5C 19.1788,21.2852 20.1788,21.9519 20.5,23.5C 17.272,22.5863 13.9387,22.2529 10.5,22.5C 10.5,31.5 10.5,40.5 10.5,49.5C 10.1667,49.5 9.83333,49.5 9.5,49.5C 9.5,40.1667 9.5,30.8333 9.5,21.5C 11.8333,21.5 14.1667,21.5 16.5,21.5 Z"/></g>
<g><path style="opacity:1" fill="#cef1f7" d="M 20.5,23.5 C 18.5149,26.8601 19.3482,29.1935 23,30.5C 24.4553,29.4196 25.9553,29.4196 27.5,30.5C 27.3284,31.4916 27.6618,32.1583 28.5,32.5C 29.9187,33.4511 31.5853,33.7845 33.5,33.5C 33.4877,30.858 34.821,29.5246 37.5,29.5C 38.5417,30.7911 39.7083,30.7911 41,29.5C 41.4935,27.8659 41.6602,26.1992 41.5,24.5C 43.9878,22.6122 46.9878,21.9455 50.5,22.5C 50.5,25.5 50.5,28.5 50.5,31.5C 50.5,34.1667 50.5,36.8333 50.5,39.5C 50.5,42.8333 50.5,46.1667 50.5,49.5C 37.1667,49.5 23.8333,49.5 10.5,49.5C 10.5,40.5 10.5,31.5 10.5,22.5C 13.9387,22.2529 17.272,22.5863 20.5,23.5 Z"/></g>
<g><path style="opacity:1" fill="#554a71" d="M 20.5,23.5 C 21.1475,25.4982 21.9808,27.4982 23,29.5C 24.8684,28.3281 26.7017,28.4947 28.5,30C 28.2716,30.3988 27.9382,30.5654 27.5,30.5C 25.9553,29.4196 24.4553,29.4196 23,30.5C 19.3482,29.1935 18.5149,26.8601 20.5,23.5 Z"/></g>
<g><path style="opacity:1" fill="#4b406d" d="M 37.5,29.5 C 34.821,29.5246 33.4877,30.858 33.5,33.5C 31.5853,33.7845 29.9187,33.4511 28.5,32.5C 29.8333,32.5 31.1667,32.5 32.5,32.5C 32.9606,29.1096 34.6273,28.1096 37.5,29.5 Z"/></g>
<g><path style="opacity:1" fill="#3e3264" d="M 30.5,36.5 C 33.1194,36.2317 35.6194,36.565 38,37.5C 38.9558,41.9252 37.1225,43.5918 32.5,42.5C 32.762,43.9778 32.4287,45.3112 31.5,46.5C 30.513,43.2317 30.1796,39.8984 30.5,36.5 Z"/></g>
<g><path style="opacity:1" fill="#443a6a" d="M 40.5,36.5 C 41.7773,37.6936 42.4439,39.3603 42.5,41.5C 42.1667,43.1667 41.8333,44.8333 41.5,46.5C 40.513,43.2317 40.1796,39.8984 40.5,36.5 Z"/></g>
<g><path style="opacity:1" fill="#d3fbfe" d="M 36.5,38.5 C 36.5,39.1667 36.5,39.8333 36.5,40.5C 32.5,39.8333 32.5,39.1667 36.5,38.5 Z"/></g>
<g><path style="opacity:1" fill="#4a4271" d="M 22.5,36.5 C 23.675,36.281 24.675,36.6143 25.5,37.5C 26.8333,40.1667 28.1667,42.8333 29.5,45.5C 29.1667,45.8333 28.8333,46.1667 28.5,46.5C 25.4937,43.9426 22.4937,43.9426 19.5,46.5C 19.1667,46.1667 18.8333,45.8333 18.5,45.5C 20.12,42.5963 21.4533,39.5963 22.5,36.5 Z"/></g>
<g><path style="opacity:1" fill="#cbeff6" d="M 23.5,39.5 C 26.4809,42.1224 26.1476,42.789 22.5,41.5C 22.8627,40.8165 23.1961,40.1499 23.5,39.5 Z"/></g>
<g><path style="opacity:1" fill="#7980a1" d="M 36.5,38.5 C 32.5,39.1667 32.5,39.8333 36.5,40.5C 35.4324,41.4345 34.099,41.7678 32.5,41.5C 32.5,40.1667 32.5,38.8333 32.5,37.5C 34.099,37.2322 35.4324,37.5655 36.5,38.5 Z"/></g>
<g><path style="opacity:1" fill="#3c3367" d="M 33.5,7.5 C 34.463,8.3635 34.463,9.03017 33.5,9.5C 32.6143,8.67504 32.281,7.67504 32.5,6.5C 31.1667,6.5 29.8333,6.5 28.5,6.5C 28.719,7.67504 28.3857,8.67504 27.5,9.5C 25.2753,10.1005 23.1086,10.4339 21,10.5C 21.5936,12.5095 21.4269,14.5095 20.5,16.5C 19.675,17.3857 18.675,17.719 17.5,17.5C 17.5,18.8333 17.5,20.1667 17.5,21.5C 17.1667,21.5 16.8333,21.5 16.5,21.5C 16.5,20.1667 16.5,18.8333 16.5,17.5C 13.5525,17.2229 10.7191,17.5562 8,18.5C 7.83333,23.6667 7.66667,28.8333 7.5,34C 7.50544,39.5457 8.17211,44.7124 9.5,49.5C 9.83333,49.5 10.1667,49.5 10.5,49.5C 23.8333,49.5 37.1667,49.5 50.5,49.5C 50.5,49.8333 50.5,50.1667 50.5,50.5C 46.8333,50.5 43.1667,50.5 39.5,50.5C 33.5,50.5 27.5,50.5 21.5,50.5C 15.1667,50.5 8.83333,50.5 2.5,50.5C 2.33003,51.8221 2.66337,52.9887 3.5,54C 21.4969,54.4999 39.4969,54.6666 57.5,54.5C 57.5,54.8333 57.5,55.1667 57.5,55.5C 39.5,55.5 21.5,55.5 3.5,55.5C 1.03108,54.3933 0.031076,52.3933 0.5,49.5C 2.16667,49.5 3.83333,49.5 5.5,49.5C 5.33351,39.1613 5.50017,28.828 6,18.5C 6.5,18 7,17.5 7.5,17C 11.4862,16.5012 15.4862,16.3345 19.5,16.5C 17.6478,13.0181 18.3145,10.1848 21.5,8C 22.6716,7.64657 23.8382,7.81324 25,8.5C 26.473,6.95375 28.3064,5.95375 30.5,5.5C 32.0296,5.63985 33.0296,6.30652 33.5,7.5 Z"/></g>
<g><path style="opacity:1" fill="#0288ec" d="M 21.5,50.5 C 24.0866,51.8164 27.0866,52.483 30.5,52.5C 33.9134,52.483 36.9134,51.8164 39.5,50.5C 43.1667,50.5 46.8333,50.5 50.5,50.5C 53.1667,50.5 55.8333,50.5 58.5,50.5C 58.5674,51.9587 58.2341,53.2921 57.5,54.5C 39.4969,54.6666 21.4969,54.4999 3.5,54C 2.66337,52.9887 2.33003,51.8221 2.5,50.5C 8.83333,50.5 15.1667,50.5 21.5,50.5 Z"/></g>
<g><path style="opacity:1" fill="#6bc5f3" d="M 21.5,50.5 C 27.5,50.5 33.5,50.5 39.5,50.5C 36.9134,51.8164 33.9134,52.483 30.5,52.5C 27.0866,52.483 24.0866,51.8164 21.5,50.5 Z"/></g>
<g><path style="opacity:0.995" fill="#e6e6e8" d="M 60.5,51.5 C 62.8398,52.5718 63.1731,54.2385 61.5,56.5C 51.8333,56.8333 42.1667,57.1667 32.5,57.5C 22.4761,57.4985 12.8095,56.8318 3.5,55.5C 21.5,55.5 39.5,55.5 57.5,55.5C 58.8571,54.4097 59.8571,53.0764 60.5,51.5 Z"/></g>
</svg>
