<?xml version="1.0" encoding="UTF-8"?>
<svg xmlns="http://www.w3.org/2000/svg" xmlns:xlink="http://www.w3.org/1999/xlink" width="48px" height="48px" viewBox="0 0 48 48" version="1.1">
<g id="surface1">
<path style=" stroke:none;fill-rule:nonzero;fill:rgb(38.039216%,85.882353%,98.431373%);fill-opacity:1;" d="M 28.199219 24 C 28.199219 26.320312 26.320312 28.199219 24 28.199219 C 21.679688 28.199219 19.800781 26.320312 19.800781 24 C 19.800781 21.679688 21.679688 19.800781 24 19.800781 C 26.320312 19.800781 28.199219 21.679688 28.199219 24 Z M 28.199219 24 "/>
<path style=" stroke:none;fill-rule:nonzero;fill:rgb(38.039216%,85.882353%,98.431373%);fill-opacity:1;" d="M 24 28.800781 C 21.351562 28.800781 19.199219 26.648438 19.199219 24 C 19.199219 21.351562 21.351562 19.199219 24 19.199219 C 26.648438 19.199219 28.800781 21.351562 28.800781 24 C 28.800781 26.648438 26.648438 28.800781 24 28.800781 Z M 24 20.398438 C 22.015625 20.398438 20.398438 22.015625 20.398438 24 C 20.398438 25.984375 22.015625 27.601562 24 27.601562 C 25.984375 27.601562 27.601562 25.984375 27.601562 24 C 27.601562 22.015625 25.984375 20.398438 24 20.398438 Z M 24 20.398438 "/>
<path style=" stroke:none;fill-rule:nonzero;fill:rgb(38.039216%,85.882353%,98.431373%);fill-opacity:1;" d="M 47.398438 24 C 47.398438 20.644531 43.90625 17.722656 38.410156 15.855469 C 39.101562 12.652344 39.195312 9.789062 38.609375 7.597656 C 38.121094 5.773438 37.191406 4.457031 35.855469 3.695312 C 35.046875 3.238281 34.128906 3.003906 33.117188 3.003906 C 30.46875 3.003906 27.246094 4.683594 24.003906 7.550781 C 20.753906 4.683594 17.53125 3 14.878906 3 C 13.871094 3 12.949219 3.234375 12.144531 3.691406 C 10.808594 4.457031 9.878906 5.773438 9.390625 7.597656 C 8.804688 9.789062 8.898438 12.652344 9.589844 15.855469 C 4.09375 17.722656 0.601562 20.644531 0.601562 24 C 0.601562 27.355469 4.09375 30.277344 9.589844 32.144531 C 8.898438 35.347656 8.804688 38.207031 9.390625 40.398438 C 9.878906 42.226562 10.808594 43.542969 12.148438 44.308594 C 12.953125 44.765625 13.875 45 14.882812 45 C 17.53125 45 20.757812 43.320312 24 40.449219 C 27.246094 43.316406 30.46875 44.996094 33.117188 44.996094 C 34.128906 44.996094 35.046875 44.761719 35.855469 44.304688 C 37.191406 43.539062 38.121094 42.226562 38.609375 40.402344 C 39.195312 38.210938 39.097656 35.347656 38.410156 32.144531 C 43.90625 30.28125 47.398438 27.355469 47.398438 24 Z M 34.664062 5.78125 C 35.425781 6.214844 35.972656 7.035156 36.289062 8.21875 C 36.773438 10.015625 36.675781 12.429688 36.101562 15.167969 C 34.1875 14.667969 32.089844 14.289062 29.851562 14.042969 C 28.519531 12.238281 27.128906 10.617188 25.722656 9.191406 C 28.597656 6.6875 31.242188 5.402344 33.117188 5.402344 C 33.707031 5.402344 34.226562 5.53125 34.664062 5.78125 Z M 30.941406 27.945312 C 30.15625 29.285156 29.351562 30.527344 28.539062 31.6875 C 27.089844 31.8125 25.578125 31.882812 24 31.882812 C 22.417969 31.882812 20.90625 31.8125 19.457031 31.6875 C 18.644531 30.527344 17.839844 29.285156 17.054688 27.945312 C 16.292969 26.636719 15.601562 25.316406 14.976562 24 C 15.601562 22.6875 16.292969 21.363281 17.054688 20.054688 C 17.839844 18.714844 18.644531 17.472656 19.460938 16.3125 C 20.90625 16.1875 22.421875 16.117188 24 16.117188 C 25.578125 16.117188 27.09375 16.1875 28.539062 16.3125 C 29.351562 17.472656 30.15625 18.714844 30.941406 20.054688 C 31.707031 21.363281 32.398438 22.683594 33.019531 24 C 32.398438 25.316406 31.707031 26.636719 30.941406 27.945312 Z M 34.269531 26.871094 C 34.761719 28.113281 35.175781 29.332031 35.519531 30.511719 C 34.332031 30.820312 33.050781 31.085938 31.6875 31.296875 C 32.136719 30.601562 32.582031 29.890625 33.011719 29.152344 C 33.457031 28.394531 33.871094 27.632812 34.269531 26.871094 Z M 24 37.179688 C 23.125 36.292969 22.238281 35.3125 21.355469 34.214844 C 22.222656 34.257812 23.101562 34.28125 24 34.28125 C 24.894531 34.28125 25.777344 34.257812 26.644531 34.214844 C 25.757812 35.3125 24.875 36.296875 24 37.179688 Z M 16.3125 31.296875 C 14.949219 31.085938 13.667969 30.820312 12.480469 30.511719 C 12.820312 29.332031 13.234375 28.113281 13.726562 26.871094 C 14.125 27.632812 14.539062 28.398438 14.984375 29.15625 C 15.414062 29.890625 15.859375 30.601562 16.3125 31.296875 Z M 13.726562 21.128906 C 13.234375 19.886719 12.820312 18.667969 12.480469 17.488281 C 13.667969 17.179688 14.949219 16.914062 16.3125 16.703125 C 15.859375 17.398438 15.414062 18.109375 14.984375 18.84375 C 14.539062 19.605469 14.125 20.367188 13.726562 21.128906 Z M 24 10.820312 C 24.875 11.707031 25.761719 12.6875 26.644531 13.785156 C 25.777344 13.742188 24.894531 13.71875 24 13.71875 C 23.105469 13.71875 22.222656 13.742188 21.355469 13.785156 C 22.242188 12.6875 23.125 11.707031 24 10.820312 Z M 33.011719 18.84375 C 32.582031 18.109375 32.136719 17.398438 31.6875 16.699219 C 33.050781 16.914062 34.332031 17.175781 35.519531 17.488281 C 35.175781 18.667969 34.761719 19.886719 34.269531 21.128906 C 33.871094 20.367188 33.457031 19.605469 33.011719 18.84375 Z M 11.707031 8.222656 C 12.027344 7.035156 12.574219 6.210938 13.335938 5.777344 C 13.773438 5.527344 14.292969 5.398438 14.878906 5.398438 C 16.761719 5.398438 19.402344 6.6875 22.277344 9.191406 C 20.871094 10.617188 19.480469 12.238281 18.148438 14.042969 C 15.910156 14.289062 13.8125 14.671875 11.898438 15.171875 C 11.320312 12.429688 11.226562 10.015625 11.707031 8.222656 Z M 3 24 C 3 21.925781 5.675781 19.722656 10.179688 18.171875 C 10.722656 20.050781 11.445312 22.011719 12.335938 24 C 11.445312 25.988281 10.722656 27.949219 10.179688 29.828125 C 5.675781 28.277344 3 26.074219 3 24 Z M 14.882812 42.601562 C 14.292969 42.601562 13.773438 42.472656 13.335938 42.222656 C 12.574219 41.789062 12.023438 40.96875 11.707031 39.78125 C 11.226562 37.984375 11.320312 35.570312 11.898438 32.832031 C 13.8125 33.332031 15.910156 33.710938 18.144531 33.957031 C 19.480469 35.761719 20.871094 37.386719 22.277344 38.808594 C 19.402344 41.316406 16.761719 42.601562 14.882812 42.601562 Z M 36.289062 39.78125 C 35.972656 40.964844 35.425781 41.785156 34.664062 42.21875 C 34.226562 42.46875 33.707031 42.597656 33.117188 42.597656 C 31.238281 42.597656 28.597656 41.3125 25.722656 38.808594 C 27.128906 37.382812 28.519531 35.761719 29.851562 33.957031 C 32.089844 33.710938 34.183594 33.332031 36.097656 32.832031 C 36.675781 35.570312 36.769531 37.984375 36.289062 39.78125 Z M 37.816406 29.828125 C 37.277344 27.953125 36.550781 25.992188 35.660156 24 C 36.550781 22.007812 37.277344 20.046875 37.816406 18.171875 C 42.320312 19.71875 45 21.925781 45 24 C 45 26.074219 42.320312 28.28125 37.816406 29.828125 Z M 37.816406 29.828125 "/>
<path style=" stroke:none;fill-rule:nonzero;fill:rgb(38.039216%,85.882353%,98.431373%);fill-opacity:1;" d="M 14.882812 45.601562 C 13.765625 45.601562 12.746094 45.339844 11.847656 44.828125 C 10.363281 43.980469 9.34375 42.542969 8.808594 40.554688 C 8.242188 38.441406 8.273438 35.675781 8.894531 32.535156 C 3.234375 30.503906 0 27.410156 0 24 C 0 20.589844 3.234375 17.496094 8.894531 15.464844 C 8.273438 12.324219 8.242188 9.558594 8.808594 7.445312 C 9.34375 5.457031 10.363281 4.019531 11.847656 3.171875 C 14.871094 1.445312 19.261719 2.699219 24 6.757812 C 28.738281 2.703125 33.125 1.449219 36.152344 3.175781 C 37.632812 4.019531 38.65625 5.457031 39.1875 7.445312 C 39.753906 9.558594 39.722656 12.324219 39.101562 15.464844 C 44.765625 17.496094 48 20.589844 48 24 C 48 27.410156 44.765625 30.503906 39.101562 32.539062 C 39.726562 35.679688 39.753906 38.441406 39.1875 40.554688 C 38.65625 42.542969 37.632812 43.980469 36.152344 44.824219 C 33.125 46.550781 28.734375 45.296875 24 41.242188 C 20.667969 44.097656 17.523438 45.601562 14.882812 45.601562 Z M 14.878906 3.601562 C 13.976562 3.601562 13.15625 3.804688 12.441406 4.214844 C 11.246094 4.898438 10.414062 6.089844 9.972656 7.753906 C 9.421875 9.804688 9.492188 12.558594 10.175781 15.730469 L 10.289062 16.253906 L 9.78125 16.425781 C 4.328125 18.277344 1.199219 21.039062 1.199219 24 C 1.199219 26.960938 4.328125 29.722656 9.78125 31.574219 L 10.289062 31.75 L 10.175781 32.273438 C 9.492188 35.441406 9.421875 38.199219 9.96875 40.246094 C 10.414062 41.914062 11.246094 43.105469 12.445312 43.789062 C 13.15625 44.195312 13.976562 44.398438 14.882812 44.398438 C 17.296875 44.398438 20.394531 42.835938 23.601562 40 L 24 39.648438 L 24.398438 40 C 27.605469 42.835938 30.703125 44.394531 33.117188 44.394531 C 34.023438 44.394531 34.84375 44.191406 35.558594 43.78125 C 36.75 43.101562 37.582031 41.910156 38.027344 40.246094 C 38.578125 38.195312 38.503906 35.441406 37.824219 32.273438 L 37.710938 31.75 L 38.214844 31.574219 C 43.671875 29.726562 46.800781 26.960938 46.800781 24 C 46.800781 21.035156 43.671875 18.273438 38.214844 16.425781 L 37.710938 16.25 L 37.824219 15.726562 C 38.507812 12.558594 38.578125 9.800781 38.027344 7.753906 C 37.582031 6.085938 36.75 4.898438 35.554688 4.214844 C 34.84375 3.808594 34.023438 3.601562 33.117188 3.601562 C 30.707031 3.601562 27.609375 5.164062 24.398438 8 L 24 8.351562 L 23.605469 8 C 20.394531 5.164062 17.296875 3.601562 14.878906 3.601562 Z M 14.882812 43.199219 C 14.1875 43.199219 13.570312 43.046875 13.039062 42.746094 C 12.132812 42.226562 11.488281 41.28125 11.128906 39.933594 C 10.636719 38.101562 10.703125 35.601562 11.308594 32.707031 L 11.441406 32.09375 L 12.046875 32.25 C 13.957031 32.75 16.027344 33.125 18.210938 33.359375 L 18.46875 33.390625 L 18.628906 33.601562 C 19.914062 35.339844 21.289062 36.953125 22.703125 38.386719 L 23.152344 38.839844 L 22.671875 39.261719 C 19.757812 41.800781 16.988281 43.199219 14.882812 43.199219 Z M 12.363281 33.566406 C 11.800781 36.015625 11.785156 38.101562 12.289062 39.625 C 12.621094 40.632812 13.015625 41.347656 13.632812 41.703125 C 15.1875 42.589844 18.207031 41.417969 21.402344 38.765625 C 20.160156 37.472656 18.957031 36.046875 17.820312 34.523438 C 15.910156 34.304688 14.074219 33.984375 12.363281 33.566406 Z M 33.117188 43.195312 C 31.011719 43.195312 28.242188 41.796875 25.328125 39.261719 L 24.847656 38.839844 L 25.296875 38.386719 C 26.71875 36.945312 28.089844 35.335938 29.371094 33.601562 L 29.527344 33.390625 L 29.789062 33.359375 C 31.96875 33.121094 34.046875 32.75 35.953125 32.25 L 36.5625 32.09375 L 36.691406 32.707031 C 37.296875 35.605469 37.363281 38.105469 36.871094 39.933594 C 36.511719 41.28125 35.867188 42.222656 34.964844 42.742188 C 34.429688 43.042969 33.8125 43.195312 33.117188 43.195312 Z M 26.597656 38.765625 C 29.792969 41.414062 32.804688 42.589844 34.371094 41.699219 C 34.984375 41.347656 35.375 40.632812 35.710938 39.625 C 36.214844 38.101562 36.195312 36.015625 35.636719 33.570312 C 33.921875 33.984375 32.089844 34.304688 30.175781 34.523438 C 29.042969 36.042969 27.84375 37.464844 26.597656 38.765625 Z M 24 38.035156 L 23.574219 37.601562 C 22.644531 36.664062 21.742188 35.652344 20.886719 34.59375 L 20.046875 33.550781 L 21.382812 33.617188 C 23.101562 33.695312 24.898438 33.695312 26.617188 33.617188 L 27.949219 33.550781 L 27.113281 34.589844 C 26.257812 35.644531 25.355469 36.660156 24.425781 37.597656 Z M 22.675781 34.863281 C 23.109375 35.363281 23.550781 35.851562 24 36.320312 C 24.449219 35.847656 24.890625 35.363281 25.320312 34.863281 C 24.445312 34.886719 23.550781 34.886719 22.675781 34.863281 Z M 24 32.480469 C 22.460938 32.480469 20.914062 32.414062 19.40625 32.285156 L 19.128906 32.261719 L 18.96875 32.03125 C 18.101562 30.800781 17.285156 29.523438 16.539062 28.246094 C 15.796875 26.972656 15.085938 25.632812 14.433594 24.257812 L 14.3125 24 L 14.433594 23.742188 C 15.085938 22.367188 15.796875 21.023438 16.539062 19.753906 C 17.292969 18.460938 18.089844 17.222656 18.972656 15.96875 L 19.132812 15.738281 L 19.410156 15.714844 C 22.417969 15.453125 25.582031 15.453125 28.589844 15.714844 L 28.867188 15.738281 L 29.027344 15.96875 C 29.910156 17.226562 30.707031 18.46875 31.457031 19.753906 C 32.207031 21.039062 32.914062 22.378906 33.5625 23.746094 L 33.683594 24 L 33.5625 24.257812 C 32.914062 25.621094 32.207031 26.964844 31.457031 28.246094 C 30.707031 29.535156 29.910156 30.773438 29.027344 32.03125 L 28.867188 32.261719 L 28.589844 32.285156 C 27.085938 32.414062 25.539062 32.480469 24 32.480469 Z M 19.789062 31.113281 C 22.558594 31.339844 25.441406 31.339844 28.207031 31.113281 C 29.007812 29.960938 29.734375 28.820312 30.421875 27.640625 C 31.109375 26.46875 31.757812 25.246094 32.355469 24 C 31.757812 22.753906 31.109375 21.53125 30.421875 20.359375 C 29.734375 19.179688 29.007812 18.039062 28.207031 16.886719 C 25.441406 16.660156 22.554688 16.660156 19.792969 16.886719 C 18.992188 18.035156 18.265625 19.171875 17.574219 20.359375 C 16.894531 21.519531 16.246094 22.746094 15.640625 24 C 16.246094 25.253906 16.894531 26.476562 17.574219 27.640625 C 18.257812 28.8125 19.003906 29.976562 19.789062 31.113281 Z M 30.453125 32.097656 L 31.179688 30.972656 C 31.628906 30.28125 32.070312 29.578125 32.496094 28.851562 C 32.933594 28.101562 33.34375 27.347656 33.738281 26.59375 L 34.34375 25.429688 L 34.828125 26.652344 C 35.3125 27.878906 35.738281 29.121094 36.09375 30.347656 L 36.265625 30.941406 L 35.671875 31.09375 C 34.449219 31.414062 33.140625 31.679688 31.777344 31.894531 Z M 34.175781 28.320312 C 33.964844 28.699219 33.75 29.078125 33.53125 29.457031 C 33.328125 29.804688 33.121094 30.144531 32.914062 30.480469 C 33.546875 30.359375 34.164062 30.230469 34.761719 30.085938 C 34.582031 29.496094 34.386719 28.90625 34.175781 28.320312 Z M 17.546875 32.097656 L 16.21875 31.890625 C 14.855469 31.679688 13.546875 31.410156 12.328125 31.09375 L 11.734375 30.941406 L 11.90625 30.347656 C 12.257812 29.128906 12.683594 27.882812 13.171875 26.652344 L 13.65625 25.429688 L 14.261719 26.59375 C 14.65625 27.347656 15.0625 28.101562 15.503906 28.855469 C 15.925781 29.578125 16.371094 30.28125 16.816406 30.972656 Z M 13.234375 30.082031 C 13.828125 30.226562 14.445312 30.359375 15.078125 30.476562 C 14.871094 30.144531 14.667969 29.804688 14.464844 29.457031 C 14.242188 29.078125 14.03125 28.699219 13.820312 28.320312 C 13.609375 28.910156 13.414062 29.5 13.234375 30.082031 Z M 37.414062 30.601562 L 37.242188 29.996094 C 36.707031 28.140625 35.988281 26.203125 35.113281 24.246094 L 35.003906 24 L 35.113281 23.753906 C 35.988281 21.800781 36.707031 19.863281 37.242188 18.003906 L 37.417969 17.398438 L 38.015625 17.605469 C 42.765625 19.238281 45.601562 21.628906 45.601562 24 C 45.601562 26.371094 42.765625 28.761719 38.011719 30.398438 Z M 36.316406 24 C 37.074219 25.710938 37.707031 27.40625 38.210938 29.050781 C 41.992188 27.648438 44.398438 25.695312 44.398438 24 C 44.398438 22.304688 41.992188 20.351562 38.210938 18.949219 C 37.707031 20.59375 37.074219 22.289062 36.316406 24 Z M 10.582031 30.601562 L 9.984375 30.394531 C 5.234375 28.761719 2.398438 26.371094 2.398438 24 C 2.398438 21.628906 5.234375 19.238281 9.984375 17.605469 L 10.582031 17.398438 L 10.753906 18.003906 C 11.292969 19.871094 12.007812 21.804688 12.882812 23.753906 L 12.992188 24 L 12.882812 24.246094 C 12.007812 26.195312 11.296875 28.128906 10.757812 29.996094 Z M 9.785156 18.949219 C 6.007812 20.355469 3.601562 22.308594 3.601562 24 C 3.601562 25.691406 6.007812 27.644531 9.785156 29.050781 C 10.292969 27.402344 10.925781 25.707031 11.679688 24 C 10.925781 22.292969 10.292969 20.597656 9.785156 18.949219 Z M 13.652344 22.570312 L 13.171875 21.351562 C 12.683594 20.117188 12.257812 18.875 11.902344 17.65625 L 11.730469 17.0625 L 12.328125 16.90625 C 13.546875 16.589844 14.855469 16.324219 16.21875 16.109375 L 17.546875 15.902344 L 16.8125 17.03125 C 16.367188 17.71875 15.925781 18.421875 15.5 19.148438 C 15.0625 19.898438 14.652344 20.65625 14.257812 21.40625 Z M 13.234375 17.917969 C 13.414062 18.5 13.609375 19.089844 13.820312 19.679688 C 14.03125 19.300781 14.242188 18.921875 14.464844 18.542969 C 14.667969 18.199219 14.871094 17.859375 15.078125 17.523438 C 14.445312 17.640625 13.828125 17.773438 13.234375 17.917969 Z M 34.34375 22.570312 L 33.738281 21.40625 C 33.34375 20.652344 32.933594 19.898438 32.496094 19.148438 C 32.070312 18.421875 31.628906 17.71875 31.179688 17.027344 L 30.453125 15.902344 L 31.777344 16.109375 C 33.140625 16.320312 34.453125 16.589844 35.667969 16.90625 L 36.265625 17.0625 L 36.09375 17.65625 C 35.738281 18.878906 35.3125 20.125 34.824219 21.351562 Z M 32.914062 17.519531 C 33.125 17.855469 33.328125 18.195312 33.53125 18.542969 C 33.753906 18.921875 33.96875 19.300781 34.175781 19.679688 C 34.386719 19.09375 34.585938 18.503906 34.765625 17.917969 C 34.167969 17.773438 33.550781 17.640625 32.914062 17.519531 Z M 36.558594 15.910156 L 35.949219 15.75 C 34.046875 15.253906 31.972656 14.878906 29.785156 14.640625 L 29.523438 14.609375 L 29.367188 14.398438 C 28.082031 12.660156 26.714844 11.050781 25.292969 9.617188 L 24.847656 9.160156 L 25.328125 8.742188 C 29.203125 5.367188 32.820312 4.039062 34.960938 5.257812 C 35.867188 5.777344 36.507812 6.722656 36.867188 8.066406 C 37.359375 9.898438 37.292969 12.398438 36.6875 15.292969 Z M 30.175781 13.476562 C 32.09375 13.695312 33.925781 14.015625 35.636719 14.433594 C 36.253906 12.144531 36.34375 10.117188 35.710938 8.375 C 35.347656 7.378906 34.984375 6.652344 34.367188 6.300781 C 32.808594 5.410156 29.792969 6.582031 26.601562 9.234375 C 27.839844 10.53125 29.042969 11.953125 30.175781 13.476562 Z M 11.441406 15.910156 L 11.3125 15.292969 C 10.703125 12.398438 10.636719 9.898438 11.128906 8.066406 C 11.488281 6.71875 12.132812 5.773438 13.039062 5.257812 C 15.183594 4.03125 18.800781 5.367188 22.675781 8.742188 L 23.15625 9.160156 L 22.707031 9.617188 C 21.285156 11.054688 19.914062 12.664062 18.632812 14.402344 L 18.476562 14.613281 L 18.214844 14.640625 C 16.03125 14.878906 13.957031 15.253906 12.050781 15.75 Z M 14.878906 6 C 14.398438 6 13.980469 6.097656 13.628906 6.296875 C 13.015625 6.652344 12.703125 7.398438 12.289062 8.375 C 11.640625 9.90625 11.75 11.988281 12.363281 14.433594 C 14.078125 14.015625 15.910156 13.695312 17.824219 13.476562 C 18.957031 11.953125 20.160156 10.53125 21.402344 9.234375 C 18.917969 7.171875 16.5625 6 14.878906 6 Z M 20.050781 14.445312 L 20.890625 13.40625 C 21.742188 12.351562 22.644531 11.339844 23.574219 10.398438 L 24 9.96875 L 24.425781 10.398438 C 25.359375 11.34375 26.261719 12.355469 27.109375 13.40625 L 27.945312 14.445312 L 26.613281 14.382812 C 24.898438 14.304688 23.097656 14.304688 21.382812 14.382812 Z M 24 13.117188 C 24.445312 13.117188 24.882812 13.125 25.320312 13.136719 C 24.894531 12.636719 24.449219 12.152344 24 11.683594 C 23.550781 12.152344 23.109375 12.636719 22.679688 13.136719 C 23.117188 13.125 23.554688 13.117188 24 13.117188 Z M 24 13.117188 "/>
</g>
</svg>
