<?xml version="1.0" encoding="UTF-8"?>
<svg xmlns="http://www.w3.org/2000/svg" xmlns:xlink="http://www.w3.org/1999/xlink" width="48px" height="48px" viewBox="0 0 48 48" version="1.1">
<g id="surface1">
<path style=" stroke:none;fill-rule:nonzero;fill:rgb(0%,0%,0%);fill-opacity:1;" d="M 46.230469 29.078125 L 44.574219 28.125 C 44.851562 26.742188 44.992188 25.355469 44.992188 24 C 44.992188 22.625 44.855469 21.238281 44.582031 19.871094 L 46.230469 18.921875 C 46.742188 18.625 47.105469 18.148438 47.257812 17.578125 C 47.410156 17.011719 47.332031 16.414062 47.039062 15.90625 L 42.53125 8.09375 C 42.234375 7.585938 41.757812 7.21875 41.191406 7.066406 C 40.621094 6.914062 40.027344 6.992188 39.515625 7.289062 L 37.863281 8.238281 C 35.78125 6.40625 33.328125 4.988281 30.714844 4.105469 L 30.714844 2.207031 C 30.714844 0.992188 29.726562 0 28.507812 0 L 19.492188 0 C 18.273438 0 17.285156 0.992188 17.285156 2.207031 L 17.285156 4.105469 C 14.6875 4.984375 12.238281 6.40625 10.144531 8.246094 L 8.484375 7.289062 C 7.972656 6.992188 7.378906 6.914062 6.808594 7.066406 C 6.242188 7.21875 5.765625 7.585938 5.46875 8.09375 L 0.960938 15.90625 C 0.667969 16.414062 0.585938 17.011719 0.742188 17.578125 C 0.894531 18.148438 1.257812 18.625 1.769531 18.921875 L 3.425781 19.875 C 3.148438 21.257812 3.007812 22.644531 3.007812 24 C 3.007812 25.375 3.144531 26.761719 3.417969 28.128906 L 1.769531 29.078125 C 0.714844 29.6875 0.351562 31.042969 0.960938 32.09375 L 5.46875 39.90625 C 6.078125 40.957031 7.429688 41.320312 8.484375 40.710938 L 10.136719 39.761719 C 12.21875 41.59375 14.671875 43.011719 17.285156 43.894531 L 17.285156 45.792969 C 17.285156 47.007812 18.273438 48 19.492188 48 L 28.507812 48 C 29.726562 48 30.714844 47.007812 30.714844 45.792969 L 30.714844 43.894531 C 33.3125 43.015625 35.761719 41.59375 37.855469 39.753906 L 39.515625 40.710938 C 40.570312 41.320312 41.921875 40.957031 42.53125 39.90625 L 47.039062 32.09375 C 47.648438 31.042969 47.285156 29.6875 46.230469 29.078125 Z M 45.820312 31.390625 L 41.308594 39.199219 C 41.089844 39.582031 40.601562 39.710938 40.21875 39.492188 L 38.117188 38.277344 C 37.847656 38.125 37.511719 38.160156 37.285156 38.371094 C 35.136719 40.359375 32.546875 41.859375 29.804688 42.710938 C 29.507812 42.800781 29.308594 43.074219 29.308594 43.382812 L 29.308594 45.792969 C 29.308594 46.234375 28.949219 46.589844 28.507812 46.589844 L 19.492188 46.589844 C 19.050781 46.589844 18.691406 46.234375 18.691406 45.792969 L 18.691406 43.382812 C 18.691406 43.074219 18.492188 42.800781 18.195312 42.710938 C 15.433594 41.855469 12.84375 40.355469 10.707031 38.375 C 10.570312 38.253906 10.398438 38.1875 10.226562 38.1875 C 10.105469 38.1875 9.984375 38.21875 9.875 38.285156 L 7.78125 39.492188 C 7.398438 39.710938 6.910156 39.582031 6.691406 39.199219 L 2.179688 31.390625 C 1.960938 31.007812 2.09375 30.519531 2.472656 30.300781 L 4.566406 29.09375 C 4.832031 28.9375 4.96875 28.628906 4.902344 28.328125 C 4.578125 26.898438 4.414062 25.441406 4.414062 24 C 4.414062 22.582031 4.582031 21.128906 4.90625 19.675781 C 4.976562 19.375 4.839844 19.066406 4.574219 18.910156 L 2.472656 17.699219 C 2.289062 17.59375 2.15625 17.421875 2.101562 17.214844 C 2.046875 17.007812 2.074219 16.792969 2.179688 16.609375 L 6.691406 8.800781 C 6.796875 8.613281 6.96875 8.484375 7.175781 8.425781 C 7.378906 8.371094 7.597656 8.402344 7.78125 8.507812 L 9.882812 9.722656 C 10.152344 9.875 10.488281 9.839844 10.714844 9.628906 C 12.863281 7.640625 15.453125 6.140625 18.195312 5.289062 C 18.492188 5.199219 18.691406 4.925781 18.691406 4.617188 L 18.691406 2.207031 C 18.691406 1.765625 19.050781 1.410156 19.492188 1.410156 L 28.507812 1.410156 C 28.949219 1.410156 29.308594 1.765625 29.308594 2.207031 L 29.308594 4.617188 C 29.308594 4.925781 29.507812 5.199219 29.804688 5.289062 C 32.566406 6.144531 35.15625 7.644531 37.296875 9.625 C 37.523438 9.832031 37.859375 9.871094 38.125 9.714844 L 40.21875 8.507812 C 40.402344 8.402344 40.621094 8.371094 40.824219 8.425781 C 41.03125 8.484375 41.203125 8.613281 41.308594 8.800781 L 45.820312 16.609375 C 45.925781 16.792969 45.953125 17.007812 45.898438 17.214844 C 45.84375 17.421875 45.710938 17.59375 45.527344 17.699219 L 43.433594 18.90625 C 43.167969 19.0625 43.03125 19.371094 43.101562 19.671875 C 43.421875 21.101562 43.585938 22.558594 43.585938 24 C 43.585938 25.417969 43.417969 26.871094 43.09375 28.324219 C 43.023438 28.625 43.160156 28.933594 43.425781 29.089844 L 45.527344 30.300781 C 45.90625 30.519531 46.039062 31.007812 45.820312 31.390625 Z M 45.820312 31.390625 "/>
<path style=" stroke:none;fill-rule:nonzero;fill:rgb(0%,0%,0%);fill-opacity:1;" d="M 24 9.769531 C 16.152344 9.769531 9.769531 16.152344 9.769531 24 C 9.769531 31.847656 16.152344 38.230469 24 38.230469 C 31.847656 38.230469 38.230469 31.847656 38.230469 24 C 38.230469 16.152344 31.847656 9.769531 24 9.769531 Z M 24 36.820312 C 16.929688 36.820312 11.179688 31.070312 11.179688 24 C 11.179688 16.929688 16.929688 11.179688 24 11.179688 C 31.070312 11.179688 36.820312 16.929688 36.820312 24 C 36.820312 31.070312 31.070312 36.820312 24 36.820312 Z M 24 36.820312 "/>
<path style=" stroke:none;fill-rule:nonzero;fill:rgb(0%,0%,0%);fill-opacity:1;" d="M 26.628906 20.289062 L 24 20.289062 C 23.609375 20.289062 23.296875 20.605469 23.296875 20.992188 L 23.296875 27.007812 C 23.296875 27.394531 23.609375 27.710938 24 27.710938 C 24.390625 27.710938 24.703125 27.394531 24.703125 27.007812 L 24.703125 25.457031 L 26.628906 25.457031 C 28.054688 25.457031 29.214844 24.296875 29.214844 22.871094 C 29.214844 21.449219 28.054688 20.289062 26.628906 20.289062 Z M 26.628906 24.046875 L 24.703125 24.046875 L 24.703125 21.699219 L 26.628906 21.699219 C 27.277344 21.699219 27.804688 22.226562 27.804688 22.871094 C 27.804688 23.519531 27.277344 24.046875 26.628906 24.046875 Z M 26.628906 24.046875 "/>
<path style=" stroke:none;fill-rule:nonzero;fill:rgb(0%,0%,0%);fill-opacity:1;" d="M 20.152344 20.746094 C 20.046875 20.472656 19.785156 20.289062 19.492188 20.289062 L 18.738281 20.289062 C 18.445312 20.289062 18.183594 20.472656 18.082031 20.746094 L 15.824219 26.757812 C 15.6875 27.121094 15.875 27.527344 16.238281 27.664062 C 16.601562 27.800781 17.007812 27.617188 17.144531 27.253906 L 17.535156 26.207031 L 20.695312 26.207031 L 21.085938 27.253906 C 21.191406 27.535156 21.460938 27.710938 21.746094 27.710938 C 21.828125 27.710938 21.910156 27.695312 21.992188 27.664062 C 22.355469 27.527344 22.542969 27.121094 22.40625 26.757812 Z M 18.066406 24.796875 L 19.117188 22 L 20.164062 24.796875 Z M 18.066406 24.796875 "/>
<path style=" stroke:none;fill-rule:nonzero;fill:rgb(0%,0%,0%);fill-opacity:1;" d="M 30.761719 20.289062 C 30.375 20.289062 30.058594 20.605469 30.058594 20.992188 L 30.058594 27.007812 C 30.058594 27.394531 30.375 27.710938 30.761719 27.710938 C 31.152344 27.710938 31.46875 27.394531 31.46875 27.007812 L 31.46875 20.992188 C 31.46875 20.605469 31.152344 20.289062 30.761719 20.289062 Z M 30.761719 20.289062 "/>
<path style=" stroke:none;fill-rule:nonzero;fill:rgb(0%,0%,0%);fill-opacity:1;" d="M 29.039062 8.199219 C 29.527344 8.355469 30.015625 8.539062 30.488281 8.738281 C 30.578125 8.777344 30.671875 8.792969 30.765625 8.792969 C 31.039062 8.792969 31.296875 8.632812 31.414062 8.367188 C 31.566406 8.007812 31.398438 7.59375 31.039062 7.441406 C 30.527344 7.222656 30 7.027344 29.46875 6.859375 C 29.097656 6.738281 28.699219 6.945312 28.582031 7.316406 C 28.464844 7.6875 28.667969 8.082031 29.039062 8.199219 Z M 29.039062 8.199219 "/>
<path style=" stroke:none;fill-rule:nonzero;fill:rgb(0%,0%,0%);fill-opacity:1;" d="M 9.4375 31.929688 C 9.25 31.585938 8.820312 31.460938 8.480469 31.648438 C 8.136719 31.832031 8.011719 32.261719 8.199219 32.601562 C 8.492188 33.140625 8.816406 33.667969 9.160156 34.167969 C 9.296875 34.367188 9.515625 34.476562 9.742188 34.476562 C 9.878906 34.476562 10.019531 34.433594 10.140625 34.351562 C 10.460938 34.132812 10.542969 33.691406 10.320312 33.371094 C 10.003906 32.90625 9.703125 32.421875 9.4375 31.929688 Z M 9.4375 31.929688 "/>
<path style=" stroke:none;fill-rule:nonzero;fill:rgb(0%,0%,0%);fill-opacity:1;" d="M 22.558594 40.515625 C 18.78125 40.191406 15.199219 38.554688 12.46875 35.910156 C 12.1875 35.640625 11.742188 35.648438 11.472656 35.925781 C 11.199219 36.207031 11.207031 36.652344 11.488281 36.921875 C 14.449219 39.792969 18.339844 41.566406 22.4375 41.921875 C 22.457031 41.921875 22.476562 41.921875 22.496094 41.921875 C 22.859375 41.921875 23.167969 41.648438 23.199219 41.28125 C 23.230469 40.890625 22.945312 40.550781 22.558594 40.515625 Z M 22.558594 40.515625 "/>
<path style=" stroke:none;fill-rule:nonzero;fill:rgb(0%,0%,0%);fill-opacity:1;" d="M 34.136719 9.136719 C 33.816406 8.917969 33.378906 9 33.160156 9.324219 C 32.9375 9.644531 33.023438 10.082031 33.34375 10.300781 C 36.617188 12.539062 38.984375 15.867188 40.007812 19.675781 C 40.09375 19.988281 40.378906 20.195312 40.6875 20.195312 C 40.75 20.195312 40.8125 20.1875 40.871094 20.171875 C 41.25 20.070312 41.472656 19.683594 41.371094 19.308594 C 40.257812 15.175781 37.6875 11.566406 34.136719 9.136719 Z M 34.136719 9.136719 "/>
</g>
</svg>
