<?xml version="1.0" encoding="UTF-8"?>
<svg xmlns="http://www.w3.org/2000/svg" xmlns:xlink="http://www.w3.org/1999/xlink" width="53px" height="53px" viewBox="0 0 53 53" version="1.1">
<g id="surface1">
<path style=" stroke:none;fill-rule:nonzero;fill:rgb(0%,0%,0%);fill-opacity:1;" d="M 18.710938 9.222656 C 16.007812 10.492188 15.953125 10.546875 16.269531 12.457031 C 16.695312 15.054688 15.425781 16.429688 12.457031 16.429688 C 10.492188 16.429688 10.175781 16.640625 9.433594 18.179688 C 8.269531 20.617188 7.738281 23.320312 8.429688 23.320312 C 9.488281 23.320312 11.128906 25.4375 11.128906 26.761719 C 11.128906 27.613281 10.546875 28.460938 9.539062 29.203125 C 7.789062 30.527344 7.789062 31.480469 9.644531 35.140625 C 10.601562 37.046875 10.757812 37.101562 12.507812 36.78125 C 15.105469 36.304688 16.429688 37.578125 16.429688 40.542969 C 16.429688 42.71875 16.484375 42.824219 19.023438 43.9375 C 20.457031 44.519531 21.835938 45.050781 22.101562 45.050781 C 22.367188 45.050781 23.160156 44.359375 23.957031 43.460938 C 25.707031 41.445312 27.242188 41.445312 29.097656 43.511719 C 30.738281 45.3125 31.320312 45.3125 35.085938 43.40625 C 36.886719 42.507812 36.992188 42.292969 36.730469 40.542969 C 36.304688 37.84375 37.734375 36.359375 40.441406 36.730469 C 42.292969 36.992188 42.507812 36.886719 43.40625 35.085938 C 45.261719 31.375 45.261719 30.847656 43.511719 29.203125 C 41.445312 27.242188 41.445312 25.757812 43.566406 23.851562 L 45.210938 22.3125 L 44.308594 20.035156 C 42.929688 16.484375 42.664062 16.21875 40.382812 16.324219 C 37.628906 16.484375 36.304688 15.105469 36.730469 12.457031 C 37.046875 10.546875 36.992188 10.492188 34.289062 9.222656 C 30.792969 7.628906 30.527344 7.628906 29.148438 9.539062 C 28.355469 10.707031 27.5625 11.128906 26.5 11.128906 C 25.386719 11.128906 24.59375 10.652344 23.742188 9.539062 C 22.367188 7.628906 22.207031 7.628906 18.710938 9.222656 Z M 26.5 12.1875 C 27.664062 12.1875 28.621094 11.714844 29.574219 10.707031 C 30.847656 9.382812 31.21875 9.222656 32.59375 9.699219 C 34.980469 10.492188 35.511719 11.074219 35.511719 13.140625 C 35.511719 15.742188 37.207031 17.488281 39.800781 17.488281 C 41.925781 17.488281 42.507812 17.96875 43.300781 20.40625 C 43.777344 21.78125 43.617188 22.152344 42.292969 23.425781 C 40.332031 25.28125 40.28125 27.613281 42.242188 29.574219 C 43.777344 31.109375 43.832031 31.640625 42.613281 34.1875 C 41.925781 35.617188 41.65625 35.773438 40.011719 35.617188 C 37.578125 35.296875 35.511719 37.3125 35.511719 40.011719 C 35.511719 41.765625 35.296875 42.027344 33.285156 42.929688 L 31.058594 43.882812 L 29.628906 42.347656 C 27.613281 40.171875 24.964844 40.441406 22.789062 42.984375 C 21.996094 43.9375 21.941406 43.9375 19.765625 42.929688 C 17.648438 41.976562 17.488281 41.765625 17.488281 39.800781 C 17.488281 37.152344 15.476562 35.296875 12.878906 35.617188 C 11.289062 35.828125 11.074219 35.667969 10.175781 33.496094 L 9.167969 31.21875 L 10.652344 29.679688 C 12.71875 27.613281 12.71875 25.28125 10.652344 23.371094 L 9.117188 21.941406 L 10.070312 19.765625 C 10.972656 17.808594 11.183594 17.597656 12.929688 17.648438 C 15.6875 17.703125 17.648438 15.742188 17.382812 13.140625 C 17.226562 11.234375 17.277344 11.128906 19.554688 10.121094 L 21.941406 9.117188 L 23.371094 10.652344 C 24.378906 11.714844 25.335938 12.1875 26.5 12.1875 Z M 26.5 12.1875 "/>
<path style=" stroke:none;fill-rule:nonzero;fill:rgb(0%,0%,0%);fill-opacity:1;" d="M 22.261719 15 C 19.503906 15.898438 15.742188 19.925781 14.894531 22.894531 C 14.523438 24.222656 14.3125 25.648438 14.414062 26.078125 C 14.574219 26.449219 15 25.496094 15.371094 23.902344 C 16.695312 18.339844 23.003906 13.992188 28.144531 15.105469 C 29.308594 15.371094 29.679688 15.316406 29.46875 14.894531 C 28.992188 14.152344 24.695312 14.203125 22.261719 15 Z M 22.261719 15 "/>
<path style=" stroke:none;fill-rule:nonzero;fill:rgb(0%,0%,0%);fill-opacity:1;" d="M 31.535156 15.898438 C 31.691406 16.164062 31.960938 16.429688 32.121094 16.429688 C 32.222656 16.429688 32.332031 16.164062 32.332031 15.898438 C 32.332031 15.582031 32.0625 15.371094 31.75 15.371094 C 31.480469 15.371094 31.375 15.582031 31.535156 15.898438 Z M 31.535156 15.898438 "/>
<path style=" stroke:none;fill-rule:nonzero;fill:rgb(0%,0%,0%);fill-opacity:1;" d="M 33.917969 17.277344 C 33.917969 17.597656 34.5 18.390625 35.246094 19.082031 C 36.78125 20.507812 38.375 25.386719 38 27.351562 C 37.894531 28.035156 38 28.621094 38.214844 28.621094 C 38.898438 28.621094 38.796875 25.125 38.054688 22.683594 C 37.472656 20.726562 33.976562 16.113281 33.917969 17.277344 Z M 33.917969 17.277344 "/>
<path style=" stroke:none;fill-rule:nonzero;fill:rgb(0%,0%,0%);fill-opacity:1;" d="M 19.394531 25.808594 C 18.65625 28.40625 18.019531 30.632812 18.019531 30.847656 C 18.019531 31.691406 19.023438 31.21875 19.34375 30.210938 C 19.613281 29.414062 20.136719 29.148438 21.464844 29.148438 C 22.789062 29.148438 23.320312 29.414062 23.585938 30.210938 C 23.902344 31.21875 24.910156 31.691406 24.910156 30.847656 C 24.964844 29.519531 21.996094 21.199219 21.464844 21.199219 C 21.09375 21.199219 20.195312 23.265625 19.394531 25.808594 Z M 22.738281 27.402344 C 22.789062 27.773438 22.207031 28.089844 21.464844 28.089844 C 19.925781 28.089844 19.925781 28.089844 20.777344 25.28125 L 21.410156 23.160156 L 22.046875 24.964844 C 22.417969 25.96875 22.738281 27.082031 22.738281 27.402344 Z M 22.738281 27.402344 "/>
<path style=" stroke:none;fill-rule:nonzero;fill:rgb(0%,0%,0%);fill-opacity:1;" d="M 25.96875 26.289062 C 25.96875 30.105469 26.128906 31.320312 26.660156 31.164062 C 26.980469 31.003906 27.351562 30.210938 27.453125 29.308594 C 27.613281 27.984375 27.933594 27.664062 29.574219 27.242188 C 32.0625 26.609375 32.964844 24.59375 31.589844 22.578125 C 30.847656 21.410156 30.316406 21.199219 28.355469 21.199219 L 25.96875 21.199219 Z M 30.632812 24.0625 C 30.847656 25.648438 30.105469 26.5 28.515625 26.5 C 27.773438 26.5 27.5625 26.019531 27.5625 24.328125 C 27.5625 22.3125 27.613281 22.207031 29.042969 22.367188 C 30.15625 22.472656 30.527344 22.84375 30.632812 24.0625 Z M 30.632812 24.0625 "/>
<path style=" stroke:none;fill-rule:nonzero;fill:rgb(0%,0%,0%);fill-opacity:1;" d="M 33.386719 26.238281 C 33.386719 29.257812 33.605469 31.269531 33.917969 31.269531 C 34.238281 31.269531 34.449219 29.257812 34.449219 26.238281 C 34.449219 23.214844 34.238281 21.199219 33.917969 21.199219 C 33.605469 21.199219 33.386719 23.214844 33.386719 26.238281 Z M 33.386719 26.238281 "/>
<path style=" stroke:none;fill-rule:nonzero;fill:rgb(0%,0%,0%);fill-opacity:1;" d="M 37.3125 30.527344 C 37.101562 31.058594 36.835938 31.691406 36.730469 31.90625 C 36.621094 32.171875 36.730469 32.332031 36.992188 32.332031 C 37.523438 32.332031 38.265625 30.15625 37.894531 29.785156 C 37.734375 29.628906 37.472656 29.996094 37.3125 30.527344 Z M 37.3125 30.527344 "/>
<path style=" stroke:none;fill-rule:nonzero;fill:rgb(0%,0%,0%);fill-opacity:1;" d="M 15.371094 31.535156 C 15.371094 32.011719 16.484375 33.496094 17.914062 34.875 C 20.507812 37.523438 23.320312 38.746094 26.550781 38.636719 C 27.933594 38.636719 27.5625 38.425781 24.964844 37.894531 C 21.25 37.046875 18.441406 35.246094 16.855469 32.542969 C 15.6875 30.527344 15.371094 30.367188 15.371094 31.535156 Z M 15.371094 31.535156 "/>
<path style=" stroke:none;fill-rule:nonzero;fill:rgb(0%,0%,0%);fill-opacity:1;" d="M 34.1875 34.980469 C 33.605469 35.5625 32.171875 36.464844 31.003906 37.046875 C 29.839844 37.628906 29.203125 38.105469 29.574219 38.160156 C 30.792969 38.160156 33.707031 36.570312 35.03125 35.191406 C 36.464844 33.65625 35.667969 33.445312 34.1875 34.980469 Z M 34.1875 34.980469 "/>
</g>
</svg>
