<svg xmlns="http://www.w3.org/2000/svg" xmlns:xlink="http://www.w3.org/1999/xlink" version="1.1" width="1000" height="1000" viewBox="0 0 1000 1000" xml:space="preserve">
<desc>Created with Fabric.js 3.5.0</desc>
<defs>
</defs>
<rect x="0" y="0" width="100%" height="100%" fill="#ffffff"/>
<g transform="matrix(1.2086 0 0 1.2086 501.242 501.242)" id="973657">
<g style="" vector-effect="non-scaling-stroke">
		<g transform="matrix(1 0 0 1 0 0)" id="7">
<rect style="stroke: none; stroke-width: 1; stroke-dasharray: none; stroke-linecap: butt; stroke-dashoffset: 0; stroke-linejoin: miter; stroke-miterlimit: 4; is-custom-font: none; font-file-url: none; fill: rgb(255,255,255); fill-rule: nonzero; opacity: 1; visibility: hidden;" vector-effect="non-scaling-stroke" x="-540" y="-540" rx="0" ry="0" width="1080" height="1080"/>
</g>
		<g transform="matrix(1.16 0 0 1.16 -311.8556 368.0652)">
<polygon style="stroke: none; stroke-width: 1; stroke-dasharray: none; stroke-linecap: butt; stroke-dashoffset: 0; stroke-linejoin: miter; stroke-miterlimit: 4; is-custom-font: none; font-file-url: none; fill: rgb(255,182,182); fill-rule: nonzero; opacity: 1;" vector-effect="non-scaling-stroke" points="-10.15,26.54 3.61,26.54 10.16,-26.54 -10.16,-26.54 -10.15,26.54 "/>
</g>
		<g transform="matrix(1.16 0 0 1.16 -299.6458 402.2381)">
<path style="stroke: none; stroke-width: 1; stroke-dasharray: none; stroke-linecap: butt; stroke-dashoffset: 0; stroke-linejoin: miter; stroke-miterlimit: 4; is-custom-font: none; font-file-url: none; fill: rgb(47,46,65); fill-rule: nonzero; opacity: 1;" vector-effect="non-scaling-stroke" transform=" translate(-291.8657, -731.9393)" d="M 270.70638 743.3758 L 313.02572000000004 743.3742100000001 L 313.02572000000004 742.83901 C 313.0250738989975 733.7421610004171 305.6507090083414 726.3679080334431 296.55386000000004 726.3674000000001 L 296.55286000000007 726.3674000000001 L 288.8226900000001 720.5028900000001 L 274.39990000000006 726.3683000000001 L 270.70570000000004 726.3684200000001 Z" stroke-linecap="round"/>
</g>
		<g transform="matrix(1.16 0 0 1.16 -269.5852 305.0424)">
<polygon style="stroke: none; stroke-width: 1; stroke-dasharray: none; stroke-linecap: butt; stroke-dashoffset: 0; stroke-linejoin: miter; stroke-miterlimit: 4; is-custom-font: none; font-file-url: none; fill: rgb(255,182,182); fill-rule: nonzero; opacity: 1;" vector-effect="non-scaling-stroke" points="-24.36,16.65 -13.53,25.14 24.36,-12.61 8.37,-25.14 -24.36,16.65 "/>
</g>
		<g transform="matrix(1.16 0 0 1.16 -287.0145 344.4976)">
<path style="stroke: none; stroke-width: 1; stroke-dasharray: none; stroke-linecap: butt; stroke-dashoffset: 0; stroke-linejoin: miter; stroke-miterlimit: 4; is-custom-font: none; font-file-url: none; fill: rgb(47,46,65); fill-rule: nonzero; opacity: 1;" vector-effect="non-scaling-stroke" transform=" translate(-302.7547, -682.1531)" d="M 284.17936 675.79953 L 317.49489 701.89553 L 317.82494 701.4742200000001 C 323.4342268901454 694.3126149071848 322.17650456230075 683.9598839350621 315.01561000000004 678.34969 L 315.01481 678.34906 L 312.54597 668.96541 L 297.575 664.68859 L 294.66678 662.41059 Z" stroke-linecap="round"/>
</g>
		<g transform="matrix(1.16 0 0 1.16 -282.1625 210.1524)">
<path style="stroke: none; stroke-width: 1; stroke-dasharray: none; stroke-linecap: butt; stroke-dashoffset: 0; stroke-linejoin: miter; stroke-miterlimit: 4; is-custom-font: none; font-file-url: none; fill: rgb(47,46,65); fill-rule: nonzero; opacity: 1;" vector-effect="non-scaling-stroke" transform=" translate(-306.9375, -566.3483)" d="M 358.205 422.93653 C 358.205 422.93653 376.4697 441.8777 368.352 485.84829 L 375.167 561.13629 L 376.92584999999997 564.62149 C 379.07569204940285 568.8814159663788 378.2484096252857 574.040115792363 374.87433 577.41419 L 374.87433 577.41419 L 373.42551 581.9071299999999 L 372.07257 590.70124 L 321.67551 666.46595 L 302.3961 646.17183 L 333.51375 575.14242 L 325.0579 556.8777 L 305.44025 493.28947 L 291.91084 609.64241 L 294.61672 709.7600600000001 L 268.72172 709.7600600000001 L 252.67554 598.14241 L 235.76378 441.20123 L 244.56056 422.93653 Z" stroke-linecap="round"/>
</g>
		<g transform="matrix(1.16 0 0 1.16 -300.1118 -45.2056)">
<path style="stroke: none; stroke-width: 1; stroke-dasharray: none; stroke-linecap: butt; stroke-dashoffset: 0; stroke-linejoin: miter; stroke-miterlimit: 4; is-custom-font: none; font-file-url: none; fill: rgb(63,61,86); fill-rule: nonzero; opacity: 1;" vector-effect="non-scaling-stroke" transform=" translate(-291.464, -346.2021)" d="M 239.9813 455.48237 L 239.79675 455.2235 C 229.9403 441.42426 244.76441 408.26504 247.00024 403.45816 L 247.00024 403.45816 C 241.52553106327827 401.68153426030824 238.0674484774718 396.2858790018198 238.73989999999998 390.56953000000004 L 239.70371999999998 382.37653000000006 L 240.70837999999998 374.34029000000004 L 233.51095999999998 367.14286000000004 L 233.49072999999999 366.96337000000005 L 229.34873 330.72091000000006 L 223.32638 306.64904000000007 C 218.70625164997873 288.12074046147166 224.44067041111555 268.54114066421164 238.32645000000002 255.43280000000004 L 252.24704 253.22236000000007 L 269.1649 236.92179000000007 L 296.44689999999997 236.92179000000007 L 305.80127999999996 245.85915000000008 C 323.26381999999995 248.92179000000007 326.26381999999995 247.92179000000007 341.26381999999995 265.9217900000001 L 334.44789 321.8842500000001 L 332.74755 329.5829700000001 L 332.75261 340.0249700000001 L 337.07541 344.8291400000001 C 340.2327527650542 348.33806718033026 341.54740668827134 353.13204864250076 340.62163 357.7606900000001 L 340.05314999999996 360.6029800000001 L 340.05314999999996 360.6029800000001 C 344.51149 362.51361000000014 348.76574999999997 396.4684900000001 349.78214999999994 401.21129000000013 L 351.30042999999995 408.2959500000001 C 352.59934999999996 410.0099500000001 361.17305999999996 421.44195000000013 361.17305999999996 424.5671400000001 C 361.17305999999996 425.0363500000001 360.82671999999997 425.4898900000001 360.08345999999995 425.9930400000001 C 354.24057999999997 429.94947000000013 330.94595999999996 458.0155400000001 316.65273999999994 452.2960400000001 C 301.4276699999999 446.2084400000001 240.90558999999993 455.3408500000001 240.29581999999994 455.4338800000001 Z" stroke-linecap="round"/>
</g>
		<g transform="matrix(1.16 0 0 1.16 -367.1343 20.8543)">
<path style="stroke: none; stroke-width: 1; stroke-dasharray: none; stroke-linecap: butt; stroke-dashoffset: 0; stroke-linejoin: miter; stroke-miterlimit: 4; is-custom-font: none; font-file-url: none; fill: rgb(255,182,182); fill-rule: nonzero; opacity: 1;" vector-effect="non-scaling-stroke" transform=" translate(-233.686, -403.1603)" d="M 236.3159 390.40721 C 236.3159 390.40721 243.3219 350.81264000000004 236.26378 335.92182 L 208.26378 337.92182 L 212.52498 394.40835000000004 L 237.00217 457.12583000000006 C 235.9688983349494 462.4700053700985 238.94383744243666 467.77951633527823 244.04118413545342 469.68868301510327 C 249.13853082847018 471.59784969492836 254.86946223622775 469.5490464876391 257.60116157734194 464.8410023682707 C 260.33286091845616 460.1329582489023 259.2674588895224 454.14078936782386 255.08031 450.66291000000007 Z" stroke-linecap="round"/>
</g>
		<g transform="matrix(1.16 0 0 1.16 -364.9117 -84.9281)">
<path style="stroke: none; stroke-width: 1; stroke-dasharray: none; stroke-linecap: butt; stroke-dashoffset: 0; stroke-linejoin: miter; stroke-miterlimit: 4; is-custom-font: none; font-file-url: none; fill: rgb(63,61,86); fill-rule: nonzero; opacity: 1;" vector-effect="non-scaling-stroke" transform=" translate(-235.602, -311.9686)" d="M 208.26378 314.92182 L 209.99669 296.05061 C 211.31397686017374 281.7055483583057 218.29732358350708 268.4780086166122 229.39946 259.29876 L 229.39946 259.29876 C 236.3665258580947 253.58103018692728 245.97481775352722 252.31268709480378 254.18692 256.02669000000003 L 254.18692000000001 256.02669000000003 C 265.47578998799025 261.22396761837746 270.809890158639 274.2771484399181 266.39162 285.89305 C 259.9201 302.8655 262.25694999999996 320.81432 249.63813 323.00254 L 251.00907999999998 329.52497 L 238.60170999999997 370.01536 L 203.26370999999997 365.92183 Z" stroke-linecap="round"/>
</g>
		<g transform="matrix(1.16 0 0 1.16 -174.9899 -7.3101)">
<path style="stroke: none; stroke-width: 1; stroke-dasharray: none; stroke-linecap: butt; stroke-dashoffset: 0; stroke-linejoin: miter; stroke-miterlimit: 4; is-custom-font: none; font-file-url: none; fill: rgb(255,182,182); fill-rule: nonzero; opacity: 1;" vector-effect="non-scaling-stroke" transform=" translate(-399.3277, -378.8806)" d="M 394.64075 371.64072 C 394.64075 371.64072 374.13128 337.05494999999996 359.06975 330.36886 L 339.147 350.14467 L 379.21391 390.18875 L 438.67012 421.77315000000004 C 441.3718788790843 426.4984375153402 447.08968750346367 428.5835772823732 452.1990492727814 426.7068073301481 C 457.3084110420991 424.83003737792296 460.3169946759625 419.5395205949292 459.3176707355981 414.1888949487496 C 458.3183467952337 408.83826930257 453.6029956451141 404.99033390236434 448.16066 405.08428000000004 Z" stroke-linecap="round"/>
</g>
		<g transform="matrix(1.16 0 0 1.16 -240.2156 -80.3411)">
<path style="stroke: none; stroke-width: 1; stroke-dasharray: none; stroke-linecap: butt; stroke-dashoffset: 0; stroke-linejoin: miter; stroke-miterlimit: 4; is-custom-font: none; font-file-url: none; fill: rgb(63,61,86); fill-rule: nonzero; opacity: 1;" vector-effect="non-scaling-stroke" transform=" translate(-343.0987, -315.9129)" d="M 324.148 332.70817 L 313.15529000000004 317.27166 C 304.79911670198 305.53750083100766 301.46720066317823 290.95554755069236 303.89778 276.75666 L 303.89778 276.75666 C 305.4508779234933 267.8785750488617 311.90788527677836 260.65118979683706 320.55556 258.11146 L 320.55556 258.11146 C 332.5030424100393 254.6897837970553 345.05921068815877 261.10699271711763 349.28475000000003 272.79438000000005 C 355.44684 289.88161 377.92336 317.96485000000007 369.78392 327.85284 L 375.07671000000005 331.90351000000004 L 383.07550000000003 354.69082000000003 L 353.616 374.63235 Z" stroke-linecap="round"/>
</g>
		<g transform="matrix(1.16 0 0 1.16 -312.2848 -216.2616)">
<circle style="stroke: none; stroke-width: 1; stroke-dasharray: none; stroke-linecap: butt; stroke-dashoffset: 0; stroke-linejoin: miter; stroke-miterlimit: 4; is-custom-font: none; font-file-url: none; fill: rgb(255,182,182); fill-rule: nonzero; opacity: 1;" vector-effect="non-scaling-stroke" cx="0" cy="0" r="30.29866"/>
</g>
		<g transform="matrix(1.16 0 0 1.16 -338.2571 -191.9068)">
<path style="stroke: none; stroke-width: 1; stroke-dasharray: none; stroke-linecap: butt; stroke-dashoffset: 0; stroke-linejoin: miter; stroke-miterlimit: 4; is-custom-font: none; font-file-url: none; fill: rgb(47,46,65); fill-rule: nonzero; opacity: 1;" vector-effect="non-scaling-stroke" transform=" translate(-258.5801, -219.7456)" d="M 258.97664 220.10456 C 258.71216999999996 219.87260999999998 258.46254999999996 219.62493999999998 258.20407 219.38656 C 258.1948 219.41101 258.19338 219.43607 258.18351 219.46045 Z" stroke-linecap="round"/>
</g>
		<g transform="matrix(1.16 0 0 1.16 -317.0103 -228.9869)">
<path style="stroke: none; stroke-width: 1; stroke-dasharray: none; stroke-linecap: butt; stroke-dashoffset: 0; stroke-linejoin: miter; stroke-miterlimit: 4; is-custom-font: none; font-file-url: none; fill: rgb(47,46,65); fill-rule: nonzero; opacity: 1;" vector-effect="non-scaling-stroke" transform=" translate(-276.8963, -187.7799)" d="M 305.79474 166.7531 C 304.289335558329 164.3297253562087 302.2041958878627 162.31933775253435 299.72749999999996 160.90337 C 298.0347062260204 160.0823260763917 296.25586700852824 159.4520536723456 294.42377 159.02417 L 289.62877 157.71589 C 287.171941920545 156.95566316821683 284.64430620847554 156.44672253855143 282.08471 156.19689 C 274.8390522380411 155.83945351488188 267.99836149233965 159.55061963873106 264.34758 165.81952 C 262.89889999999997 168.38906999999998 261.73685 171.59105999999997 258.94086 172.53115999999997 C 256.68636 173.28921999999997 254.22657999999998 172.21993999999998 251.85715 172.42737999999997 C 249.03736567568768 172.83599233108035 246.60781555596722 174.6255904259772 245.38142 177.19737999999998 C 244.20054368091763 179.74567951317152 243.6193679047319 182.53070845210644 243.68251999999998 185.33861 C 243.49424530078045 198.2300713201048 248.76973318926807 210.59923580683602 258.2041 219.38661 C 258.98609999999996 217.32531 257.6981 215.09983 256.67991 213.128 C 255.64966 211.13279 255.01299 208.35117 256.73849 206.91418 C 258.65849000000003 205.31518 261.73463000000004 206.86575 264.00532000000004 205.82300999999998 C 265.4808599843144 204.9754536796851 266.4332193245717 203.44460391568012 266.54142 201.74640999999997 C 266.76121 200.08968999999996 266.53174 198.40563999999998 266.63573 196.73763999999997 C 266.84389585774136 193.39801016316034 268.3779075671374 190.2800178201656 270.8965878461963 188.07713104973945 C 273.41526812525524 185.8742442793133 276.7097742601444 184.76912098179608 280.04738000000003 185.00754999999998 C 285.21583000000004 185.37673999999998 290.23172000000005 188.90848999999997 295.20550000000003 187.45555 C 297.54021 186.77355 299.53150000000005 185.03707999999997 301.94616 184.74499999999998 C 304.62036 184.42148999999998 307.13603 185.93069999999997 309.40672 187.37983999999997 C 311.0740256668598 180.29961851748365 309.76871790973024 172.84546768434114 305.79474 166.7531 Z" stroke-linecap="round"/>
</g>
		<g transform="matrix(1.16 0 0 1.16 -180.7929 392.2201)">
<path style="stroke: none; stroke-width: 1; stroke-dasharray: none; stroke-linecap: butt; stroke-dashoffset: 0; stroke-linejoin: miter; stroke-miterlimit: 4; is-custom-font: none; font-file-url: none; fill: rgb(240,240,240); fill-rule: nonzero; opacity: 1;" vector-effect="non-scaling-stroke" transform=" translate(-394.3251, -723.2933)" d="M 410.83368 726.35315 L 403.12368000000004 713.96315 L 401.58368 721.04323 C 401.31368000000003 722.28323 401.04368 723.54323 400.79368 724.79323 C 398.60368 722.92312 396.27368 721.19314 393.99387 719.53323 Q 383.49387 711.91311 373.00364 704.27323 L 375.19358 716.97318 C 376.54368 724.79325 377.95383 732.77323 381.29368 739.92318 C 381.66379 740.73323 382.06368 741.53328 382.49387 742.31331 L 415.03387000000004 742.31331 C 415.2956052330009 741.588708166973 415.4766980621943 740.8374713936314 415.57387000000006 740.0732 C 415.58197736374575 740.0236345175324 415.58524607644614 739.9733981543095 415.5836300000001 739.9232000000001 C 416.09394 735.07312 413.41376 730.50317 410.83368 726.35315 Z" stroke-linecap="round"/>
</g>
		<g transform="matrix(1.16 0 0 1.16 457.9576 373.8093)">
<path style="stroke: none; stroke-width: 1; stroke-dasharray: none; stroke-linecap: butt; stroke-dashoffset: 0; stroke-linejoin: miter; stroke-miterlimit: 4; is-custom-font: none; font-file-url: none; fill: rgb(240,240,240); fill-rule: nonzero; opacity: 1;" vector-effect="non-scaling-stroke" transform=" translate(-944.9721, -707.4218)" d="M 974.91649 712.97217 L 960.93156 690.49817 L 958.13811 703.34057 C 957.64833 705.58976 957.15855 707.8752599999999 956.70511 710.14257 C 952.73282 706.7504 948.50634 703.61243 944.37111 700.6015699999999 Q 925.32538 686.7795699999999 906.2973800000001 672.9217699999999 L 910.2696700000001 695.9579399999999 C 912.7185800000001 710.1425899999999 915.2764300000001 724.6172999999999 921.3345000000002 737.5863499999999 C 922.0058500000001 739.0556999999999 922.7312200000001 740.5068899999999 923.5115000000002 741.9217699999999 L 982.5351700000002 741.9217699999999 C 983.009945598795 740.6074305542593 983.3384511954653 739.2447780578634 983.5147400000002 737.8584799999999 C 983.529454512775 737.7685589825389 983.5353857844764 737.6774196845108 983.5324500000002 737.5863499999999 C 984.458 728.78914 979.59644 720.49981 974.91649 712.97217 Z" stroke-linecap="round"/>
</g>
		<g transform="matrix(1.16 0 0 1.16 57.79 414.4929)">
<path style="stroke: none; stroke-width: 1; stroke-dasharray: none; stroke-linecap: butt; stroke-dashoffset: 0; stroke-linejoin: miter; stroke-miterlimit: 4; is-custom-font: none; font-file-url: none; fill: rgb(202,202,202); fill-rule: nonzero; opacity: 1;" vector-effect="non-scaling-stroke" transform=" translate(-600, -742.4938)" d="M 1013.375 743.53083 L 186.625 743.83817 C 185.96874998123488 743.8362681715289 185.43776063400884 743.3037377745319 185.43776063400884 742.647485 C 185.43776063400884 741.9912322254681 185.96874998123488 741.4587018284711 186.625 741.4568 L 1013.375 741.1494600000001 C 1014.0312500187651 741.1513618284712 1014.5622393659912 741.6838922254682 1014.5622393659912 742.340145 C 1014.5622393659912 742.9963977745319 1014.0312500187651 743.528928171529 1013.375 743.53083 Z" stroke-linecap="round"/>
</g>
		<g transform="matrix(1.16 0 0 1.16 140.4946 177.2439)">
<path style="stroke: none; stroke-width: 1; stroke-dasharray: none; stroke-linecap: butt; stroke-dashoffset: 0; stroke-linejoin: miter; stroke-miterlimit: 4; is-custom-font: none; font-file-url: none; fill: rgb(63,61,86); fill-rule: nonzero; opacity: 1;" vector-effect="non-scaling-stroke" transform=" translate(-671.297, -537.9788)" d="M 444.83223 394.45926 L 444.83223 681.48318 C 444.8382572951817 689.0993312083878 451.0108488135085 695.2719450996557 458.627 695.278 L 883.967 695.278 C 891.5831788895555 695.2720057046096 897.7558157046095 689.0993688895555 897.76181 681.48319 L 897.76181 394.45926 C 897.7437368377322 386.85056619186014 891.5757091444005 380.68935718050557 883.967 380.6797 L 458.627 380.6797 C 451.01832012024767 380.6894121089307 444.8503359958738 386.8505954647138 444.83223 394.45926 Z" stroke-linecap="round"/>
</g>
		<g transform="matrix(1.16 0 0 1.16 140.5035 177.2438)">
<path style="stroke: none; stroke-width: 1; stroke-dasharray: none; stroke-linecap: butt; stroke-dashoffset: 0; stroke-linejoin: miter; stroke-miterlimit: 4; is-custom-font: none; font-file-url: none; fill: rgb(255,255,255); fill-rule: nonzero; opacity: 1;" vector-effect="non-scaling-stroke" transform=" translate(-671.3047, -537.9788)" d="M 454.8105 398.03051 L 454.8105 677.94251 C 454.8175348655889 682.0113394331594 458.1142205668406 685.3080251344111 462.18305 685.31506 L 880.42634 685.31506 C 884.4951847289913 685.3080580694772 887.7918925505699 682.0113547194902 887.7989 677.94251 L 887.7989 398.03051 C 887.7985181181793 393.95643023089656 884.5004101747994 390.6514599526084 880.42634 390.64261 L 462.18305 390.64261 C 458.10899516751397 390.65149294053225 454.81090937558736 393.95644550405166 454.8105 398.03051 Z" stroke-linecap="round"/>
</g>
		<g transform="matrix(1.16 0 0 1.16 139.1681 383.0635)">
<path style="stroke: none; stroke-width: 1; stroke-dasharray: none; stroke-linecap: butt; stroke-dashoffset: 0; stroke-linejoin: miter; stroke-miterlimit: 4; is-custom-font: none; font-file-url: none; fill: rgb(47,46,65); fill-rule: nonzero; opacity: 1;" vector-effect="non-scaling-stroke" transform=" translate(-670.1535, -715.4096)" d="M 435.93667 737.4605 C 437.5153240168077 739.4399096375124 439.9135629776941 740.5873148219886 442.44536999999997 740.5745000000001 L 897.88447 740.5745000000001 C 900.4068847030613 740.5713407269737 902.7937132481463 739.4322214921614 904.3826925639643 737.4732088201429 C 905.9716718797822 735.5141961481245 906.5937714583962 732.9436835048875 906.07638 730.4749 L 899.00655 696.89358 C 898.4112159858649 694.1111136329182 896.4470785638259 691.8195472018332 893.78843 690.8055800000001 C 892.8410783663558 690.4338977182302 891.8323050809945 690.2435938581303 890.8146499999999 690.24458 L 449.48711 690.24458 C 448.4694533492774 690.2435769805826 447.4606769464594 690.4338814287869 446.51333 690.8055800000001 C 443.8546004841551 691.8194321773777 441.8904179600529 694.1110512292075 441.29521 696.89358 L 434.22538 730.4749 C 433.7159266014746 732.9423037849728 434.34444380477 735.5079529591864 435.93667 737.4605 Z" stroke-linecap="round"/>
</g>
		<g transform="matrix(-1.16 0 0 -1.16 383.2512 365.78)">
<rect style="stroke: none; stroke-width: 1; stroke-dasharray: none; stroke-linecap: butt; stroke-dashoffset: 0; stroke-linejoin: miter; stroke-miterlimit: 4; is-custom-font: none; font-file-url: none; fill: rgb(63,61,86); fill-rule: nonzero; opacity: 1;" vector-effect="non-scaling-stroke" x="-7.01365" y="-4.2082" rx="0.48819" ry="0.48819" width="14.0273" height="8.4164"/>
</g>
		<g transform="matrix(-1.16 0 0 -1.16 350.7016 365.78)">
<rect style="stroke: none; stroke-width: 1; stroke-dasharray: none; stroke-linecap: butt; stroke-dashoffset: 0; stroke-linejoin: miter; stroke-miterlimit: 4; is-custom-font: none; font-file-url: none; fill: rgb(63,61,86); fill-rule: nonzero; opacity: 1;" vector-effect="non-scaling-stroke" x="-7.01365" y="-4.2082" rx="0.48819" ry="0.48819" width="14.0273" height="8.4164"/>
</g>
		<g transform="matrix(-1.16 0 0 -1.16 318.1636 365.78)">
<rect style="stroke: none; stroke-width: 1; stroke-dasharray: none; stroke-linecap: butt; stroke-dashoffset: 0; stroke-linejoin: miter; stroke-miterlimit: 4; is-custom-font: none; font-file-url: none; fill: rgb(63,61,86); fill-rule: nonzero; opacity: 1;" vector-effect="non-scaling-stroke" x="-7.01365" y="-4.2082" rx="0.48819" ry="0.48819" width="14.0273" height="8.4164"/>
</g>
		<g transform="matrix(-1.16 0 0 -1.16 285.614 365.78)">
<rect style="stroke: none; stroke-width: 1; stroke-dasharray: none; stroke-linecap: butt; stroke-dashoffset: 0; stroke-linejoin: miter; stroke-miterlimit: 4; is-custom-font: none; font-file-url: none; fill: rgb(63,61,86); fill-rule: nonzero; opacity: 1;" vector-effect="non-scaling-stroke" x="-7.01365" y="-4.2082" rx="0.48819" ry="0.48819" width="14.0273" height="8.4164"/>
</g>
		<g transform="matrix(-1.16 0 0 -1.16 253.076 365.78)">
<rect style="stroke: none; stroke-width: 1; stroke-dasharray: none; stroke-linecap: butt; stroke-dashoffset: 0; stroke-linejoin: miter; stroke-miterlimit: 4; is-custom-font: none; font-file-url: none; fill: rgb(63,61,86); fill-rule: nonzero; opacity: 1;" vector-effect="non-scaling-stroke" x="-7.01365" y="-4.2082" rx="0.48819" ry="0.48819" width="14.0273" height="8.4164"/>
</g>
		<g transform="matrix(-1.16 0 0 -1.16 220.5264 365.78)">
<rect style="stroke: none; stroke-width: 1; stroke-dasharray: none; stroke-linecap: butt; stroke-dashoffset: 0; stroke-linejoin: miter; stroke-miterlimit: 4; is-custom-font: none; font-file-url: none; fill: rgb(63,61,86); fill-rule: nonzero; opacity: 1;" vector-effect="non-scaling-stroke" x="-7.01365" y="-4.2082" rx="0.48819" ry="0.48819" width="14.0273" height="8.4164"/>
</g>
		<g transform="matrix(-1.16 0 0 -1.16 187.9884 365.78)">
<rect style="stroke: none; stroke-width: 1; stroke-dasharray: none; stroke-linecap: butt; stroke-dashoffset: 0; stroke-linejoin: miter; stroke-miterlimit: 4; is-custom-font: none; font-file-url: none; fill: rgb(63,61,86); fill-rule: nonzero; opacity: 1;" vector-effect="non-scaling-stroke" x="-7.01365" y="-4.2082" rx="0.48819" ry="0.48819" width="14.0273" height="8.4164"/>
</g>
		<g transform="matrix(-1.16 0 0 -1.16 155.4388 365.78)">
<rect style="stroke: none; stroke-width: 1; stroke-dasharray: none; stroke-linecap: butt; stroke-dashoffset: 0; stroke-linejoin: miter; stroke-miterlimit: 4; is-custom-font: none; font-file-url: none; fill: rgb(63,61,86); fill-rule: nonzero; opacity: 1;" vector-effect="non-scaling-stroke" x="-7.01365" y="-4.2082" rx="0.48819" ry="0.48819" width="14.0273" height="8.4164"/>
</g>
		<g transform="matrix(-1.16 0 0 -1.16 122.9008 365.78)">
<rect style="stroke: none; stroke-width: 1; stroke-dasharray: none; stroke-linecap: butt; stroke-dashoffset: 0; stroke-linejoin: miter; stroke-miterlimit: 4; is-custom-font: none; font-file-url: none; fill: rgb(63,61,86); fill-rule: nonzero; opacity: 1;" vector-effect="non-scaling-stroke" x="-7.01365" y="-4.2082" rx="0.48819" ry="0.48819" width="14.0273" height="8.4164"/>
</g>
		<g transform="matrix(-1.16 0 0 -1.16 90.3512 365.78)">
<rect style="stroke: none; stroke-width: 1; stroke-dasharray: none; stroke-linecap: butt; stroke-dashoffset: 0; stroke-linejoin: miter; stroke-miterlimit: 4; is-custom-font: none; font-file-url: none; fill: rgb(63,61,86); fill-rule: nonzero; opacity: 1;" vector-effect="non-scaling-stroke" x="-7.01365" y="-4.2082" rx="0.48819" ry="0.48819" width="14.0273" height="8.4164"/>
</g>
		<g transform="matrix(-1.16 0 0 -1.16 57.8132 365.78)">
<rect style="stroke: none; stroke-width: 1; stroke-dasharray: none; stroke-linecap: butt; stroke-dashoffset: 0; stroke-linejoin: miter; stroke-miterlimit: 4; is-custom-font: none; font-file-url: none; fill: rgb(63,61,86); fill-rule: nonzero; opacity: 1;" vector-effect="non-scaling-stroke" x="-7.01365" y="-4.2082" rx="0.48819" ry="0.48819" width="14.0273" height="8.4164"/>
</g>
		<g transform="matrix(-1.16 0 0 -1.16 25.2752 365.78)">
<rect style="stroke: none; stroke-width: 1; stroke-dasharray: none; stroke-linecap: butt; stroke-dashoffset: 0; stroke-linejoin: miter; stroke-miterlimit: 4; is-custom-font: none; font-file-url: none; fill: rgb(63,61,86); fill-rule: nonzero; opacity: 1;" vector-effect="non-scaling-stroke" x="-7.01365" y="-4.2082" rx="0.48819" ry="0.48819" width="14.0273" height="8.4164"/>
</g>
		<g transform="matrix(-1.16 0 0 -1.16 -7.2744 365.78)">
<rect style="stroke: none; stroke-width: 1; stroke-dasharray: none; stroke-linecap: butt; stroke-dashoffset: 0; stroke-linejoin: miter; stroke-miterlimit: 4; is-custom-font: none; font-file-url: none; fill: rgb(63,61,86); fill-rule: nonzero; opacity: 1;" vector-effect="non-scaling-stroke" x="-7.01365" y="-4.2082" rx="0.48819" ry="0.48819" width="14.0273" height="8.4164"/>
</g>
		<g transform="matrix(-1.16 0 0 -1.16 -39.8124 365.78)">
<rect style="stroke: none; stroke-width: 1; stroke-dasharray: none; stroke-linecap: butt; stroke-dashoffset: 0; stroke-linejoin: miter; stroke-miterlimit: 4; is-custom-font: none; font-file-url: none; fill: rgb(63,61,86); fill-rule: nonzero; opacity: 1;" vector-effect="non-scaling-stroke" x="-7.01365" y="-4.2082" rx="0.48819" ry="0.48819" width="14.0273" height="8.4164"/>
</g>
		<g transform="matrix(-1.16 0 0 -1.16 -72.362 365.78)">
<rect style="stroke: none; stroke-width: 1; stroke-dasharray: none; stroke-linecap: butt; stroke-dashoffset: 0; stroke-linejoin: miter; stroke-miterlimit: 4; is-custom-font: none; font-file-url: none; fill: rgb(63,61,86); fill-rule: nonzero; opacity: 1;" vector-effect="non-scaling-stroke" x="-7.01365" y="-4.2082" rx="0.48819" ry="0.48819" width="14.0273" height="8.4164"/>
</g>
		<g transform="matrix(-1.16 0 0 -1.16 -104.9 365.78)">
<rect style="stroke: none; stroke-width: 1; stroke-dasharray: none; stroke-linecap: butt; stroke-dashoffset: 0; stroke-linejoin: miter; stroke-miterlimit: 4; is-custom-font: none; font-file-url: none; fill: rgb(63,61,86); fill-rule: nonzero; opacity: 1;" vector-effect="non-scaling-stroke" x="-7.01365" y="-4.2082" rx="0.48819" ry="0.48819" width="14.0273" height="8.4164"/>
</g>
		<g transform="matrix(-1.16 0 0 -1.16 383.634 382.0432)">
<rect style="stroke: none; stroke-width: 1; stroke-dasharray: none; stroke-linecap: butt; stroke-dashoffset: 0; stroke-linejoin: miter; stroke-miterlimit: 4; is-custom-font: none; font-file-url: none; fill: rgb(63,61,86); fill-rule: nonzero; opacity: 1;" vector-effect="non-scaling-stroke" x="-7.01365" y="-4.2082" rx="0.48819" ry="0.48819" width="14.0273" height="8.4164"/>
</g>
		<g transform="matrix(-1.16 0 0 -1.16 351.0844 382.0432)">
<rect style="stroke: none; stroke-width: 1; stroke-dasharray: none; stroke-linecap: butt; stroke-dashoffset: 0; stroke-linejoin: miter; stroke-miterlimit: 4; is-custom-font: none; font-file-url: none; fill: rgb(63,61,86); fill-rule: nonzero; opacity: 1;" vector-effect="non-scaling-stroke" x="-7.01365" y="-4.2082" rx="0.48819" ry="0.48819" width="14.0273" height="8.4164"/>
</g>
		<g transform="matrix(-1.16 0 0 -1.16 318.5464 382.0432)">
<rect style="stroke: none; stroke-width: 1; stroke-dasharray: none; stroke-linecap: butt; stroke-dashoffset: 0; stroke-linejoin: miter; stroke-miterlimit: 4; is-custom-font: none; font-file-url: none; fill: rgb(63,61,86); fill-rule: nonzero; opacity: 1;" vector-effect="non-scaling-stroke" x="-7.01365" y="-4.2082" rx="0.48819" ry="0.48819" width="14.0273" height="8.4164"/>
</g>
		<g transform="matrix(-1.16 0 0 -1.16 285.9968 382.0432)">
<rect style="stroke: none; stroke-width: 1; stroke-dasharray: none; stroke-linecap: butt; stroke-dashoffset: 0; stroke-linejoin: miter; stroke-miterlimit: 4; is-custom-font: none; font-file-url: none; fill: rgb(63,61,86); fill-rule: nonzero; opacity: 1;" vector-effect="non-scaling-stroke" x="-7.01365" y="-4.2082" rx="0.48819" ry="0.48819" width="14.0273" height="8.4164"/>
</g>
		<g transform="matrix(-1.16 0 0 -1.16 253.4588 382.0432)">
<rect style="stroke: none; stroke-width: 1; stroke-dasharray: none; stroke-linecap: butt; stroke-dashoffset: 0; stroke-linejoin: miter; stroke-miterlimit: 4; is-custom-font: none; font-file-url: none; fill: rgb(63,61,86); fill-rule: nonzero; opacity: 1;" vector-effect="non-scaling-stroke" x="-7.01365" y="-4.2082" rx="0.48819" ry="0.48819" width="14.0273" height="8.4164"/>
</g>
		<g transform="matrix(-1.16 0 0 -1.16 220.9092 382.0432)">
<rect style="stroke: none; stroke-width: 1; stroke-dasharray: none; stroke-linecap: butt; stroke-dashoffset: 0; stroke-linejoin: miter; stroke-miterlimit: 4; is-custom-font: none; font-file-url: none; fill: rgb(63,61,86); fill-rule: nonzero; opacity: 1;" vector-effect="non-scaling-stroke" x="-7.01365" y="-4.2082" rx="0.48819" ry="0.48819" width="14.0273" height="8.4164"/>
</g>
		<g transform="matrix(-1.16 0 0 -1.16 188.3712 382.0432)">
<rect style="stroke: none; stroke-width: 1; stroke-dasharray: none; stroke-linecap: butt; stroke-dashoffset: 0; stroke-linejoin: miter; stroke-miterlimit: 4; is-custom-font: none; font-file-url: none; fill: rgb(63,61,86); fill-rule: nonzero; opacity: 1;" vector-effect="non-scaling-stroke" x="-7.01365" y="-4.2082" rx="0.48819" ry="0.48819" width="14.0273" height="8.4164"/>
</g>
		<g transform="matrix(-1.16 0 0 -1.16 155.8332 382.0432)">
<rect style="stroke: none; stroke-width: 1; stroke-dasharray: none; stroke-linecap: butt; stroke-dashoffset: 0; stroke-linejoin: miter; stroke-miterlimit: 4; is-custom-font: none; font-file-url: none; fill: rgb(63,61,86); fill-rule: nonzero; opacity: 1;" vector-effect="non-scaling-stroke" x="-7.01365" y="-4.2082" rx="0.48819" ry="0.48819" width="14.0273" height="8.4164"/>
</g>
		<g transform="matrix(-1.16 0 0 -1.16 123.2836 382.0432)">
<rect style="stroke: none; stroke-width: 1; stroke-dasharray: none; stroke-linecap: butt; stroke-dashoffset: 0; stroke-linejoin: miter; stroke-miterlimit: 4; is-custom-font: none; font-file-url: none; fill: rgb(63,61,86); fill-rule: nonzero; opacity: 1;" vector-effect="non-scaling-stroke" x="-7.01365" y="-4.2082" rx="0.48819" ry="0.48819" width="14.0273" height="8.4164"/>
</g>
		<g transform="matrix(-1.16 0 0 -1.16 90.7456 382.0432)">
<rect style="stroke: none; stroke-width: 1; stroke-dasharray: none; stroke-linecap: butt; stroke-dashoffset: 0; stroke-linejoin: miter; stroke-miterlimit: 4; is-custom-font: none; font-file-url: none; fill: rgb(63,61,86); fill-rule: nonzero; opacity: 1;" vector-effect="non-scaling-stroke" x="-7.01365" y="-4.2082" rx="0.48819" ry="0.48819" width="14.0273" height="8.4164"/>
</g>
		<g transform="matrix(-1.16 0 0 -1.16 58.196 382.0432)">
<rect style="stroke: none; stroke-width: 1; stroke-dasharray: none; stroke-linecap: butt; stroke-dashoffset: 0; stroke-linejoin: miter; stroke-miterlimit: 4; is-custom-font: none; font-file-url: none; fill: rgb(63,61,86); fill-rule: nonzero; opacity: 1;" vector-effect="non-scaling-stroke" x="-7.01365" y="-4.2082" rx="0.48819" ry="0.48819" width="14.0273" height="8.4164"/>
</g>
		<g transform="matrix(-1.16 0 0 -1.16 25.658 382.0432)">
<rect style="stroke: none; stroke-width: 1; stroke-dasharray: none; stroke-linecap: butt; stroke-dashoffset: 0; stroke-linejoin: miter; stroke-miterlimit: 4; is-custom-font: none; font-file-url: none; fill: rgb(63,61,86); fill-rule: nonzero; opacity: 1;" vector-effect="non-scaling-stroke" x="-7.01365" y="-4.2082" rx="0.48819" ry="0.48819" width="14.0273" height="8.4164"/>
</g>
		<g transform="matrix(-1.16 0 0 -1.16 -6.8916 382.0432)">
<rect style="stroke: none; stroke-width: 1; stroke-dasharray: none; stroke-linecap: butt; stroke-dashoffset: 0; stroke-linejoin: miter; stroke-miterlimit: 4; is-custom-font: none; font-file-url: none; fill: rgb(63,61,86); fill-rule: nonzero; opacity: 1;" vector-effect="non-scaling-stroke" x="-7.01365" y="-4.2082" rx="0.48819" ry="0.48819" width="14.0273" height="8.4164"/>
</g>
		<g transform="matrix(-1.16 0 0 -1.16 -39.4296 382.0432)">
<rect style="stroke: none; stroke-width: 1; stroke-dasharray: none; stroke-linecap: butt; stroke-dashoffset: 0; stroke-linejoin: miter; stroke-miterlimit: 4; is-custom-font: none; font-file-url: none; fill: rgb(63,61,86); fill-rule: nonzero; opacity: 1;" vector-effect="non-scaling-stroke" x="-7.01365" y="-4.2082" rx="0.48819" ry="0.48819" width="14.0273" height="8.4164"/>
</g>
		<g transform="matrix(-1.16 0 0 -1.16 -71.9792 382.0432)">
<rect style="stroke: none; stroke-width: 1; stroke-dasharray: none; stroke-linecap: butt; stroke-dashoffset: 0; stroke-linejoin: miter; stroke-miterlimit: 4; is-custom-font: none; font-file-url: none; fill: rgb(63,61,86); fill-rule: nonzero; opacity: 1;" vector-effect="non-scaling-stroke" x="-7.01365" y="-4.2082" rx="0.48819" ry="0.48819" width="14.0273" height="8.4164"/>
</g>
		<g transform="matrix(-1.16 0 0 -1.16 -104.5172 382.0432)">
<rect style="stroke: none; stroke-width: 1; stroke-dasharray: none; stroke-linecap: butt; stroke-dashoffset: 0; stroke-linejoin: miter; stroke-miterlimit: 4; is-custom-font: none; font-file-url: none; fill: rgb(63,61,86); fill-rule: nonzero; opacity: 1;" vector-effect="non-scaling-stroke" x="-7.01365" y="-4.2082" rx="0.48819" ry="0.48819" width="14.0273" height="8.4164"/>
</g>
		<g transform="matrix(-1.16 0 0 -1.16 134.5124 401.5776)">
<rect style="stroke: none; stroke-width: 1; stroke-dasharray: none; stroke-linecap: butt; stroke-dashoffset: 0; stroke-linejoin: miter; stroke-miterlimit: 4; is-custom-font: none; font-file-url: none; fill: rgb(63,61,86); fill-rule: nonzero; opacity: 1;" vector-effect="non-scaling-stroke" x="-56.1093" y="-4.2082" rx="0.48819" ry="0.48819" width="112.2186" height="8.4164"/>
</g>
		<g transform="matrix(1.16 0 0 1.16 141.2364 202.7995)">
<path style="stroke: none; stroke-width: 1; stroke-dasharray: none; stroke-linecap: butt; stroke-dashoffset: 0; stroke-linejoin: miter; stroke-miterlimit: 4; is-custom-font: none; font-file-url: none; fill: rgb(63,61,86); fill-rule: nonzero; opacity: 1;" vector-effect="non-scaling-stroke" transform=" translate(-671.9365, -560.0095)" d="M 766.58472 560.20185 C 766.4885187017418 609.1775198191378 729.0435847049687 649.989614890565 680.2571820865927 654.2922197388766 C 631.4707794682167 658.5948245871882 587.4607402728288 624.9664639943445 578.794102260152 576.7636126836572 C 570.1274642474752 528.5607613729701 599.6674722640763 481.70846033533644 646.897204330922 468.74783157678587 C 694.1269363977676 455.7872028182353 743.4428462784375 481.00012051499436 760.59272 526.8750299999999 C 760.7991 527.4308000000001 761.00032 527.98656 761.1961 528.54768 L 761.1961 528.55298 Q 762.50632 532.2529800000001 763.50405 536.09068 C 765.556050074454 543.9632641693337 766.5913618077726 552.066234369011 766.58472 560.20185 Z" stroke-linecap="round"/>
</g>
		<g transform="matrix(1.16 0 0 1.16 106.7017 145.844)">
<path style="stroke: none; stroke-width: 1; stroke-dasharray: none; stroke-linecap: butt; stroke-dashoffset: 0; stroke-linejoin: miter; stroke-miterlimit: 4; is-custom-font: none; font-file-url: none; fill: rgb(108,99,255); fill-rule: nonzero; opacity: 1;" vector-effect="non-scaling-stroke" transform=" translate(-642.1653, -510.91)" d="M 660.88028 495.91758 C 652.2034097942892 491.2253736011842 641.846303806149 490.8016331327113 632.81513 494.76935 C 628.89113 496.47709 624.75928 499.54055999999997 623.45025 505.07263 C 628.74455 501.94813 635.5979 506.88483 636.96025 514.80434 L 636.64225 514.89202 C 635.9227 520.37737 637.52901 526.34945 640.63888 529.75078 C 641.1071436424576 526.642775555429 642.949374888931 523.9105754474397 645.65512 522.3112299999999 C 647.94003 520.80923 650.46776 519.7180999999999 652.21174 517.1362799999999 C 654.2792599999999 514.0755099999999 654.80428 509.60220999999996 655.6256199999999 505.52147999999994 C 656.4469599999999 501.4407499999999 658.00521 497.05467 660.88028 495.91758 Z" stroke-linecap="round"/>
</g>
		<g transform="matrix(1.16 0 0 1.16 66.1105 172.9046)">
<path style="stroke: none; stroke-width: 1; stroke-dasharray: none; stroke-linecap: butt; stroke-dashoffset: 0; stroke-linejoin: miter; stroke-miterlimit: 4; is-custom-font: none; font-file-url: none; fill: rgb(108,99,255); fill-rule: nonzero; opacity: 1;" vector-effect="non-scaling-stroke" transform=" translate(-607.1729, -534.2381)" d="M 631.24471 542.59621 C 629.77844 544.79821 627.8199400000001 546.1798100000001 626.06258 547.90015 C 624.033797825185 549.7455780892644 622.7028187809188 552.2336756385654 622.29373 554.94554 C 622.07138 556.8617300000001 622.4154599999999 558.8096400000001 622.36778 560.7470800000001 C 622.3202200000001 562.6843900000001 621.67438 564.8652400000001 620.35635 565.3469600000001 C 618.27604 566.0985700000001 616.68804 562.2344700000001 614.54957 561.9645100000001 C 612.85037 561.7527600000001 611.32065 564.4259200000001 611.8129 566.7444000000002 C 612.30515 569.0628800000002 614.61839 570.0897600000002 615.9470200000001 568.5758800000002 C 617.14862 570.5926000000002 616.30163 574.2503800000002 614.49665 574.8696600000002 C 614.30604 576.1400700000002 614.1155500000001 577.4051900000002 613.93023 578.6755400000002 C 609.36738 575.4836400000002 604.7569000000001 572.2388900000002 600.8769100000001 567.5648300000001 C 596.5616690168818 562.4105870716883 593.8851826362504 556.0843652135462 593.1909800000001 549.3981400000001 C 592.6881400000001 544.0253900000001 593.4344500000001 537.8798300000001 590.9678100000001 533.7457700000001 C 588.9933400000001 530.4374400000002 585.6055900000001 529.7068900000002 582.5566200000001 529.9134000000001 C 582.0008600000001 529.9504000000002 581.4398000000001 530.0139500000001 580.8839800000001 530.0827600000001 C 582.6820755406962 524.6822703736738 584.9657600385478 519.4557939611192 587.70703 514.4674200000002 C 588.3274010081014 514.2011223963615 588.9038535942288 513.8423862425373 589.41677 513.4034200000002 C 592.25405 510.9949900000002 593.51387 506.1197800000002 595.81645 502.7479300000002 Q 596.0388 502.4223700000002 596.27697 502.1127600000002 C 598.6325400000001 499.0373000000002 601.7873500000001 497.4546000000002 604.83632 495.9830300000002 C 611.58532 492.7064900000002 618.53011 489.38756000000024 625.65498 489.84278000000023 L 623.62766 490.03863000000024 Q 620.0785 499.97953000000024 616.5239799999999 509.92043000000024 Q 615.98398 511.44485000000026 615.4335799999999 512.9746900000002 C 614.0890599999999 516.7434800000002 612.7022 520.7558700000002 612.9086499999999 524.9746900000002 C 613.0303899999999 527.4731300000002 613.8984399999998 530.1409900000002 615.5500199999999 530.9985100000002 C 617.0903399999999 531.7925100000002 618.7736399999999 530.8185100000003 620.2610199999999 529.8551300000003 C 620.89096 529.4528300000003 621.5156 529.0505300000002 622.1454799999999 528.6429400000003 C 624.4057399999999 527.1872700000002 626.9094799999999 525.6945800000003 629.2967799999999 526.6685300000003 C 631.4829299999999 527.5578400000003 633.0973599999999 530.5273900000003 633.4044099999999 533.7298900000003 C 633.685909855931 536.8429232477771 632.9263070351567 539.9613571422477 631.24471 542.59621 Z" stroke-linecap="round"/>
</g>
		<g transform="matrix(1.16 0 0 1.16 96.8174 252.9551)">
<path style="stroke: none; stroke-width: 1; stroke-dasharray: none; stroke-linecap: butt; stroke-dashoffset: 0; stroke-linejoin: miter; stroke-miterlimit: 4; is-custom-font: none; font-file-url: none; fill: rgb(108,99,255); fill-rule: nonzero; opacity: 1;" vector-effect="non-scaling-stroke" transform=" translate(-633.6443, -603.2472)" d="M 644.68757 587.84212 Q 634.7856300000001 581.74539 624.88364 575.64865 L 624.99564 575.36004 C 620.89126 576.92332 619.18724 584.21909 619.86555 590.18546 C 620.54386 596.15183 622.84385 601.48546 624.00575 607.29894 C 625.5724550485405 615.2545294828585 624.9811321240074 623.4844692590291 622.29317 631.13436 C 630.9735014877688 621.3944930635487 638.6555231585996 610.8089364608302 645.224 599.53648 C 646.1415821383772 598.115772517412 646.8407741427043 596.5654129636611 647.29822 594.93719 C 647.7827537339844 593.2019711955232 647.6100602486209 591.3489879010249 646.81322 589.73319 C 646.2728658959909 588.9359520549957 645.5422879945513 588.2859984163085 644.68757 587.84212 Z" stroke-linecap="round"/>
</g>
		<g transform="matrix(1.16 0 0 1.16 86.3529 152.7354)">
<path style="stroke: none; stroke-width: 1; stroke-dasharray: none; stroke-linecap: butt; stroke-dashoffset: 0; stroke-linejoin: miter; stroke-miterlimit: 4; is-custom-font: none; font-file-url: none; fill: rgb(108,99,255); fill-rule: nonzero; opacity: 1;" vector-effect="non-scaling-stroke" transform=" translate(-624.6232, -516.8409)" d="M 618.63446 513.89674 C 617.8593019570238 515.5611363447712 617.7398513102487 517.4565253918076 618.29992 519.20507 C 618.9512760160584 520.6138443557943 620.1328650593463 521.7082080720725 621.58736 522.24983 L 625.23489 524.05783 C 626.44836 524.65931 627.7562999999999 525.2668299999999 628.99334 524.77194 C 630.48534 524.1750599999999 631.51985 521.8359399999999 631.25224 519.66446 C 630.96741 517.3536799999999 629.51086 515.76418 628.16376 514.41059 Q 625.336 511.56927999999994 622.50827 508.72794999999996 L 621.4458400000001 510.02921999999995 C 620.2966870435592 511.150081125243 619.3460665900517 512.4578174029251 618.63446 513.89674 Z" stroke-linecap="round"/>
</g>
		<g transform="matrix(1.16 0 0 1.16 187.8419 178.0978)">
<path style="stroke: none; stroke-width: 1; stroke-dasharray: none; stroke-linecap: butt; stroke-dashoffset: 0; stroke-linejoin: miter; stroke-miterlimit: 4; is-custom-font: none; font-file-url: none; fill: rgb(108,99,255); fill-rule: nonzero; opacity: 1;" vector-effect="non-scaling-stroke" transform=" translate(-712.1137, -538.7151)" d="M 747.03111 538.59972 Q 749.4925900000001 539.1793200000001 751.95394 539.7589300000001 C 751.66808 545.3011000000001 748.92087 550.43037 745.23673 552.2882800000001 C 743.70165 553.0611500000001 741.99191 553.3469400000001 740.7215 554.79208 C 739.57289 556.10481 738.99057 558.1479700000001 738.4559399999999 560.1012400000001 Q 737.05053 565.2146500000001 735.64514 570.3279400000001 C 734.63946 574.0015500000002 733.3479199999999 578.0827500000001 730.73298 579.4060900000002 C 728.48861 580.5440900000002 725.92135 579.1519500000002 724.19572 576.8175700000002 C 722.47009 574.4832600000002 721.41672 571.3442800000001 720.39508 568.2847800000002 C 720.4586 571.6195500000002 718.90769 574.8908500000002 716.71094 576.0500600000001 C 714.5088900000001 577.2092700000002 711.8304300000001 576.1612000000001 710.3589400000001 573.5728200000001 C 709.3002700000001 571.7148200000001 708.86094 569.2639700000001 707.8234100000001 567.3795800000001 C 706.7859400000001 565.4951900000001 704.6104100000001 564.4153200000002 703.4776 566.1832800000002 C 702.73122 567.3584500000002 702.8264700000001 569.1581300000001 702.45596 570.6508900000002 C 702.0735669838448 572.6823084950721 700.4459646498328 574.248305479621 698.40131 574.5520700000002 C 696.5476453541758 574.5095653994482 694.792766754042 573.7077080771613 693.5473099999999 572.3341300000002 C 690.305814072196 569.0183280420254 688.1955565479835 564.7626264010447 687.5181899999999 560.1753600000002 C 687.0589706719445 557.975995867652 687.116971890155 555.7000188905926 687.6876199999999 553.5269000000002 C 688.3386899999999 551.4679000000002 689.9107899999999 549.8799000000001 691.4722999999999 550.2715500000002 C 692.4992399999999 548.1012300000002 690.47192 545.2216900000002 688.6456799999999 545.4757600000002 C 686.8141399999998 545.7298300000001 685.3796799999999 547.6936300000001 683.8763799999998 549.2022800000002 C 682.3783799999998 550.7108700000002 680.2822499999999 551.8065600000002 678.7735899999998 550.3085700000001 C 678.8090480306123 550.884692726831 678.602332168724 551.449452963807 678.2033306539142 551.8665530231277 C 677.8043291391044 552.2836530824485 677.2492882378117 552.515202581946 676.6721599999997 552.5053200000001 C 675.6690464236194 552.2173625174995 674.7370020667696 551.7233921548464 673.9355399999997 551.0549500000001 C 670.4789799999998 548.9005300000001 666.0907799999998 550.32977 663.6346699999997 554.40561 C 665.1697499999997 547.87361 667.4194199999997 540.37827 672.1357299999997 538.84319 C 674.0625799999997 538.2133200000001 676.1640199999997 538.7320500000001 677.9848899999997 537.6415900000001 C 681.2085799999998 535.70959 681.8596499999998 528.4100500000001 679.0753499999997 525.39817 C 679.4299599999997 528.24593 679.3612099999997 531.5701700000001 677.8578599999997 533.51817 C 676.3545699999997 535.46617 673.1996999999998 534.1956700000001 673.3903099999998 531.31617 C 673.3025106401003 532.1470092450216 672.6898740080553 532.8269076982087 671.8726357228738 533.0004708391702 C 671.0553974376924 533.1740339801318 670.2193138037896 532.8018113227215 669.8014199999998 532.0783700000001 C 668.8009699999998 530.5539600000001 668.8856799999998 528.06082 669.5949699999998 526.2398800000001 C 670.3261998813174 524.5906411850428 671.3747814132955 523.1013903760646 672.6809699999998 521.8569800000001 C 675.1952999999997 519.1626900000001 677.7467299999997 516.4366100000001 680.6580599999998 514.7427000000001 C 683.5746899999998 513.0488600000001 686.9412499999997 512.4772000000002 689.8631099999998 514.1605100000002 C 691.4035599999997 515.0497600000001 692.7586199999997 516.5319200000001 694.3307199999998 517.3153200000002 C 695.0916617234313 517.7874821319111 696.0114211668216 517.9312435151624 696.880149840171 517.7138041503492 C 697.7488785135204 517.4963647855362 698.492466551716 516.9362740799605 698.9412599999998 516.1613200000002 C 700.1110699999998 514.1075100000002 699.5605399999998 511.05854000000016 699.9946299999998 508.49132000000014 C 700.7727299999998 503.95496000000014 705.3090899999999 501.83232000000015 707.8234299999998 504.82832000000013 C 705.9443299999998 504.34667000000013 704.0016599999998 506.5698400000001 703.7687199999998 509.26420000000013 C 703.5305399999997 511.95849000000015 704.8909599999998 514.6792700000001 706.7118399999998 515.4944600000001 C 709.7713999999999 516.8495200000001 712.7673899999999 513.4405800000001 715.0806299999998 510.2857800000001 Q 718.7012199999998 505.3312200000001 722.3324799999998 500.3819700000001 C 722.7190347658701 499.8201834538638 723.1528933796604 499.29245997527045 723.6293199999998 498.8045600000001 C 725.2026542927545 497.270990432157 727.6956136139094 497.2200767647796 729.3302499999998 498.6881300000001 C 731.7757699999997 500.6836600000001 732.9244499999998 504.7754600000001 734.9306399999997 507.59149000000014 C 737.8419699999997 511.6832200000001 742.1983799999997 512.6783700000001 746.2530299999997 513.4723700000002 Q 750.7867299999997 514.3537100000002 755.3258799999998 515.2456300000002 C 757.3429969886316 518.9983011081251 759.1026671466217 522.8837588213546 760.5927199999998 526.8751300000002 C 755.0436178903025 529.4054524890471 750.336904774945 533.4746066326326 747.03111 538.59972 Z" stroke-linecap="round"/>
</g>
		<g transform="matrix(1.16 0 0 1.16 245.5216 173.9699)">
<path style="stroke: none; stroke-width: 1; stroke-dasharray: none; stroke-linecap: butt; stroke-dashoffset: 0; stroke-linejoin: miter; stroke-miterlimit: 4; is-custom-font: none; font-file-url: none; fill: rgb(108,99,255); fill-rule: nonzero; opacity: 1;" vector-effect="non-scaling-stroke" transform=" translate(-761.8376, -535.1564)" d="M 763.504 536.09068 C 762.8839079198473 537.9186376065585 762.5448009005191 539.8301109173085 762.4982600000001 541.75982 C 759.9045100000001 538.59442 759.49161 532.66061 761.1960500000001 528.5529799999999 Q 762.5063 532.253 763.504 536.09068 Z" stroke-linecap="round"/>
</g>
		<g transform="matrix(1.16 0 0 1.16 227.0189 258.7497)">
<path style="stroke: none; stroke-width: 1; stroke-dasharray: none; stroke-linecap: butt; stroke-dashoffset: 0; stroke-linejoin: miter; stroke-miterlimit: 4; is-custom-font: none; font-file-url: none; fill: rgb(108,99,255); fill-rule: nonzero; opacity: 1;" vector-effect="non-scaling-stroke" transform=" translate(-745.887, -608.2324)" d="M 756.80265 602.28916 C 754.534847950539 606.8939798897723 751.8971677343976 611.3072085564341 748.91557 615.48541 C 747.00998 614.67022 744.96146 616.12588 743.17757 617.4916 C 741.31431 618.9207799999999 739.0752399999999 620.3129299999999 737.1643499999999 619.0107899999999 C 735.2111399999999 617.6768599999999 734.5811999999999 613.9450999999999 735.2005499999999 610.9860799999999 C 735.9123505452332 608.2564836474471 737.1572388432904 605.6947144202284 738.86349 603.44837 C 740.4514899999999 601.07697 742.15063 598.61555 744.35798 597.69452 C 746.57062 596.77352 749.41307 598.07562 750.05891 601.2199 L 751.62572 601.1669 C 750.747 599.9600700000001 751.20759 597.46157 752.38799 597.02224 C 753.74835 596.50881 754.92882 598.37731 755.73335 600.02889 C 756.09336 600.77521 756.45857 601.52689 756.80265 602.28916 Z" stroke-linecap="round"/>
</g>
		<g transform="matrix(1.16 0 0 1.16 147.3097 232.5695)">
<path style="stroke: none; stroke-width: 1; stroke-dasharray: none; stroke-linecap: butt; stroke-dashoffset: 0; stroke-linejoin: miter; stroke-miterlimit: 4; is-custom-font: none; font-file-url: none; fill: rgb(108,99,255); fill-rule: nonzero; opacity: 1;" vector-effect="non-scaling-stroke" transform=" translate(-677.1722, -585.6634)" d="M 696.7944 579.93054 C 693.42661 580.1423299999999 690.75896 575.99637 688.98628 571.91774 C 687.2135999999999 567.83911 685.59614 563.17482 682.55736 561.09879 C 680.82105 559.91252 678.84149 559.74979 676.95815 559.17492 C 674.7909511444319 558.6275525276576 673.0206008467725 557.0688773000784 672.20315 554.98846 L 670.06681 554.12546 C 667.0784958366485 555.6192168972386 664.3418252265553 557.5705497842613 661.95574 559.90891 C 659.2290599607835 562.8052947900197 657.5307573911323 566.518133278013 657.12264 570.47506 C 656.71454 574.75121 658.2215 579.51931 661.0373000000001 581.12565 C 663.2622100000001 582.3949399999999 665.8526300000001 581.59489 668.1063 582.7569 C 670.9220700000001 584.20864 672.5937700000001 588.4259 673.2266000000001 592.5899 C 673.8594300000001 596.7538999999999 673.6990400000001 601.08125 674.15178 605.2924899999999 C 674.60452 609.5037299999999 675.8523 613.8856999999999 678.43458 616.04379 C 681.66599 618.74439 686.4075799999999 616.5003099999999 687.85738 611.5842799999999 C 688.56853 609.17288 688.54403 606.4518899999999 689.07592 603.9487599999999 C 690.01258 599.5405999999999 692.54015 596.2701299999999 694.54487 592.6541299999999 C 696.5495899999999 589.0381299999999 698.12771 584.127 696.7944 579.93054 Z" stroke-linecap="round"/>
</g>
		<g transform="matrix(1.16 0 0 1.16 134.1088 173.7868)">
<path style="stroke: none; stroke-width: 1; stroke-dasharray: none; stroke-linecap: butt; stroke-dashoffset: 0; stroke-linejoin: miter; stroke-miterlimit: 4; is-custom-font: none; font-file-url: none; fill: rgb(108,99,255); fill-rule: nonzero; opacity: 1;" vector-effect="non-scaling-stroke" transform=" translate(-665.792, -534.9986)" d="M 663.51554 536.6144 C 663.8296098394425 536.9035145016268 664.1226849378534 537.214635273144 664.3925399999999 537.5454000000001 C 664.9617744259032 538.5267926220109 664.9410501073456 539.7426372738535 664.3386999999999 540.7040600000001 C 665.1588512907134 540.657357617667 665.9220107709743 540.2694860891526 666.4431599999999 539.6344800000002 C 667.0578227386166 538.9344327591812 667.5985319780211 538.1727676983418 668.0566799999999 537.3616100000002 C 668.4924894446342 536.7996438707164 668.665771377753 536.0774864790375 668.5324199999999 535.3789500000001 C 668.3733299999999 534.9249000000001 667.9970999999999 534.7312200000001 667.7333399999999 534.3897400000002 C 667.3677175562527 533.7221061733391 667.1181484792022 532.9972210453744 666.9952799999999 532.2460100000002 C 666.6970103054496 530.8098909831426 665.611789333565 529.6662106060131 664.1932799999998 529.2930700000002 L 664.3620599999998 529.3253700000001 C 663.7730520149598 529.6748810376669 663.4716299887167 530.3603703420611 663.6121999999998 531.0306900000002 C 663.7144399999999 531.6912400000001 664.1388999999998 532.2396300000001 664.0966599999998 532.9133200000001 C 664.0359599999998 533.8820500000002 663.0678099999998 534.3366500000001 663.0079999999998 535.3055100000001 C 662.9985725147674 535.791556308487 663.180903932782 536.2617690399464 663.51554 536.6144 Z" stroke-linecap="round"/>
</g>
		<g transform="matrix(1.16 0 0 1.16 124.9501 156.3855)">
<path style="stroke: none; stroke-width: 1; stroke-dasharray: none; stroke-linecap: butt; stroke-dashoffset: 0; stroke-linejoin: miter; stroke-miterlimit: 4; is-custom-font: none; font-file-url: none; fill: rgb(108,99,255); fill-rule: nonzero; opacity: 1;" vector-effect="non-scaling-stroke" transform=" translate(-657.8966, -519.9975)" d="M 657.7454 520.152 L 657.7604 520.14908 C 657.8639848962457 520.054674859687 657.9600525983711 519.9523381657583 658.04773 519.8430000000001 Z" stroke-linecap="round"/>
</g>
		<g transform="matrix(1.16 0 0 1.16 123.4416 159.3196)">
<path style="stroke: none; stroke-width: 1; stroke-dasharray: none; stroke-linecap: butt; stroke-dashoffset: 0; stroke-linejoin: miter; stroke-miterlimit: 4; is-custom-font: none; font-file-url: none; fill: rgb(108,99,255); fill-rule: nonzero; opacity: 1;" vector-effect="non-scaling-stroke" transform=" translate(-656.5962, -522.5269)" d="M 658.75542 524.69918 C 659.5800001279633 523.9756149264226 659.932590749517 522.8528143168543 659.66969 521.78775 C 659.42504 520.6862299999999 658.5591599999999 519.9456299999999 657.7604399999999 520.1490699999999 C 657.2894216603214 520.6265874137455 656.6056916933271 520.8278818511012 655.95107 520.6817599999999 C 655.45728 520.55464 654.91516 520.2272599999999 654.4869199999999 520.59929 C 654.2419257146288 520.8771182676012 654.070459970335 521.2119118976932 653.9881899999999 521.57308 Q 653.7504299999999 522.3030200000001 653.51262 523.03281 C 653.4373540753215 523.2070128240941 653.4177297211809 523.4002109060217 653.45643 523.58599 C 653.518175097406 523.7373901160081 653.654366608547 523.8456619125849 653.81579 523.8716800000001 Q 655.24243 524.29227 656.66902 524.7128200000001 C 657.3320139484566 525.0182871633781 658.096476581038 525.0132894302932 658.75542 524.69918 Z" stroke-linecap="round"/>
</g>
		<g transform="matrix(1.16 0 0 1.16 206.5743 234.8462)">
<path style="stroke: none; stroke-width: 1; stroke-dasharray: none; stroke-linecap: butt; stroke-dashoffset: 0; stroke-linejoin: miter; stroke-miterlimit: 4; is-custom-font: none; font-file-url: none; fill: rgb(108,99,255); fill-rule: nonzero; opacity: 1;" vector-effect="non-scaling-stroke" transform=" translate(-728.2623, -587.636)" d="M 730.55513 587.47761 Q 729.8956599999999 586.39797 729.23622 585.3182400000001 C 728.8043887024018 584.4846777967265 728.2140191962773 583.7434107959498 727.49822 583.13601 C 727.18031253002 582.8696937079638 726.768430113799 582.7428532666075 726.3557793639739 582.7841919354503 C 725.9431286141487 582.825530604293 725.5645919381009 583.0315539215222 725.3058299999999 583.3556400000001 L 725.3593799999999 583.7667700000001 C 726.5365926469148 585.0288172354778 727.3387706064169 586.5939836532186 727.6758799999999 588.2866 C 727.7761199999999 589.02219 727.7412299999999 589.7835 727.8291299999999 590.52229 C 727.8478563484335 591.214129870308 728.1408940737977 591.870135187042 728.6436699999998 592.34575 C 729.3359299999998 592.80824 730.1487999999998 592.1263399999999 730.6414999999998 591.29428 C 731.0819574157904 590.610872603603 731.2795469573206 589.7990942855577 731.2024399999998 588.98971 C 731.0926111489318 588.446631030359 730.8722780327238 587.9319383714811 730.55513 587.47761 Z" stroke-linecap="round"/>
</g>
		<g transform="matrix(1.16 0 0 1.16 216.0938 231.3003)">
<path style="stroke: none; stroke-width: 1; stroke-dasharray: none; stroke-linecap: butt; stroke-dashoffset: 0; stroke-linejoin: miter; stroke-miterlimit: 4; is-custom-font: none; font-file-url: none; fill: rgb(108,99,255); fill-rule: nonzero; opacity: 1;" vector-effect="non-scaling-stroke" transform=" translate(-736.4688, -584.5792)" d="M 737.45184 588.41432 C 737.5356647072798 587.7404789829375 737.4809044715797 587.0566157908694 737.2909199999999 586.4046999999999 C 737.2594620278915 585.5226478614625 737.4933126252457 584.6514383876155 737.96224 583.9037 C 738.4279962600332 583.1983049339246 738.7809026907977 582.4245930100714 739.00824 581.61045 C 739.1040339077167 581.2394874137134 739.0865531540741 580.8483385717446 738.95805 580.4874 C 738.8125299999999 580.16048 738.4600499999999 580.0114 738.2578699999999 580.27023 L 738.6905399999999 580.5488899999999 C 738.1063141885627 580.4446281552607 737.5060832759964 580.4736845985075 736.9346599999999 580.63389 C 736.2730808944925 580.8871510631326 735.7764638003796 581.4469736978197 735.6038899999999 582.1340299999999 C 735.5324344628282 582.6618967455893 735.4156700737169 583.1826324641805 735.2548899999998 583.6904699999999 C 734.9967999999998 584.2209699999999 734.4972099999998 584.3974099999999 734.1832599999998 584.8630499999999 C 733.7483304485485 585.7015994348097 733.764926722889 586.7027964677443 734.2274099999997 587.5264699999999 C 734.6216749860762 588.189666326234 735.2484606603689 588.682562644941 735.9859199999997 588.9093399999999 C 736.51435 589.099 737.21011 589.109 737.45184 588.41432 Z" stroke-linecap="round"/>
</g>
		<g transform="matrix(1.16 0 0 1.16 232.6824 239.2508)">
<path style="stroke: none; stroke-width: 1; stroke-dasharray: none; stroke-linecap: butt; stroke-dashoffset: 0; stroke-linejoin: miter; stroke-miterlimit: 4; is-custom-font: none; font-file-url: none; fill: rgb(108,99,255); fill-rule: nonzero; opacity: 1;" vector-effect="non-scaling-stroke" transform=" translate(-750.7693, -591.4232)" d="M 749.73357 592.11986 C 749.9245779859758 592.6169408315786 750.1804613459143 593.0865893521575 750.49457 593.5166 C 751.0825699999999 594.10887 751.8816599999999 593.7449 752.5949899999999 593.60094 C 753.9137336085178 593.39268771097 755.2404057016057 593.9248188816814 756.04972 594.9866400000001 C 755.4882982179141 592.18704976865 753.6025145410821 589.834347776105 750.99227 588.6769700000001 C 749.3207655731811 588.0983871147017 747.5593714411708 587.8229436567548 745.79103 587.8636100000001 L 745.48897 587.9410200000001 C 746.25867 590.18154 748.67563 590.13141 749.73357 592.11986 Z" stroke-linecap="round"/>
</g>
		<g transform="matrix(1.16 0 0 1.16 171.1937 245.2765)">
<path style="stroke: none; stroke-width: 1; stroke-dasharray: none; stroke-linecap: butt; stroke-dashoffset: 0; stroke-linejoin: miter; stroke-miterlimit: 4; is-custom-font: none; font-file-url: none; fill: rgb(108,99,255); fill-rule: nonzero; opacity: 1;" vector-effect="non-scaling-stroke" transform=" translate(-697.7618, -596.6276)" d="M 697.7157 596.7025 L 697.72012 596.71226 L 697.8079899999999 596.54303 Z" stroke-linecap="round"/>
</g>
		<g transform="matrix(1.16 0 0 1.16 169.3715 252.3506)">
<path style="stroke: none; stroke-width: 1; stroke-dasharray: none; stroke-linecap: butt; stroke-dashoffset: 0; stroke-linejoin: miter; stroke-miterlimit: 4; is-custom-font: none; font-file-url: none; fill: rgb(108,99,255); fill-rule: nonzero; opacity: 1;" vector-effect="non-scaling-stroke" transform=" translate(-696.1909, -602.726)" d="M 695.85249 600.30892 C 695.446155510482 601.0466233243724 695.096707667928 601.8142585726547 694.80719 602.6051399999999 C 694.4238639867906 603.8861665075095 694.1700623515642 605.202428106533 694.0495999999999 606.5341399999999 C 693.9549699999999 607.2913499999999 693.9257899999999 608.2584399999998 694.4001699999999 608.6274199999999 C 694.6819596465464 608.8144561164264 695.0587917835443 608.7632769426039 695.2804899999999 608.5078599999999 C 695.544015670296 608.22899031588 695.7596410491582 607.9084850987347 695.9186499999998 607.5592999999999 C 696.8510762525847 605.9534233303912 697.5750066892069 604.2352441054726 698.0729399999998 602.4462999999998 C 698.5926050382009 600.5485350030265 698.4685275810743 598.532038945084 697.7201199999998 596.7122999999998 Q 696.78636 598.51061 695.85249 600.30892 Z" stroke-linecap="round"/>
</g>
		<g transform="matrix(1.16 0 0 1.16 151.0807 133.9844)">
<path style="stroke: none; stroke-width: 1; stroke-dasharray: none; stroke-linecap: butt; stroke-dashoffset: 0; stroke-linejoin: miter; stroke-miterlimit: 4; is-custom-font: none; font-file-url: none; fill: rgb(108,99,255); fill-rule: nonzero; opacity: 1;" vector-effect="non-scaling-stroke" transform=" translate(-680.423, -500.6862)" d="M 677.87809 504.22651 C 678.4830105871573 504.8177286191671 679.3813595034779 504.99305225002564 680.1641900000001 504.67267000000004 C 680.957356642606 504.3259071023174 681.6849652693837 503.8452930209141 682.31519 503.25185000000005 C 682.837051418775 502.8657218865958 683.2797448548754 502.38279038275715 683.61913 501.82939000000005 C 683.9967551306869 501.1614636041548 684.0927442455651 500.37062039195996 683.8858700000001 499.63175000000007 C 683.5895134368897 498.91917379985557 682.9461118158155 498.4102216459069 682.1844500000001 498.28587000000005 Q 680.6009600000001 497.81628000000006 679.01745 497.34675000000004 L 679.7811 496.65846000000005 C 678.9954200000001 496.23679000000004 678.12621 497.01937000000004 677.6351000000001 497.98823000000004 C 677.3201660728574 498.62085612742936 677.1006389126766 499.29662734216237 676.9836600000001 499.99356000000006 C 676.6456025320668 501.4674268681281 676.9726895318651 503.0153880454093 677.87809 504.22651 Z" stroke-linecap="round"/>
</g>
		<g transform="matrix(1.16 0 0 1.16 171.3336 128.6198)">
<path style="stroke: none; stroke-width: 1; stroke-dasharray: none; stroke-linecap: butt; stroke-dashoffset: 0; stroke-linejoin: miter; stroke-miterlimit: 4; is-custom-font: none; font-file-url: none; fill: rgb(108,99,255); fill-rule: nonzero; opacity: 1;" vector-effect="non-scaling-stroke" transform=" translate(-697.8824, -496.0515)" d="M 696.51576 497.96967 C 697.1333019490809 498.6503917939613 698.1731610183652 498.73498575219884 698.89261 498.16303 C 699.4960272357328 497.7098008439026 699.8782434088245 497.02135434111784 699.94385 496.26954 C 700.01857 495.43917 699.60799 494.51624 699.02159 494.44454 L 699.1558 493.66708 C 698.02619 493.46308 696.63615 493.42222 696.0308 494.794 C 695.6153018951898 495.863376752372 695.8000315018196 497.0730440855256 696.51576 497.96967 Z" stroke-linecap="round"/>
</g>
		<g transform="matrix(1.16 0 0 1.16 140.5035 63.949)">
<path style="stroke: none; stroke-width: 1; stroke-dasharray: none; stroke-linecap: butt; stroke-dashoffset: 0; stroke-linejoin: miter; stroke-miterlimit: 4; is-custom-font: none; font-file-url: none; fill: rgb(202,202,202); fill-rule: nonzero; opacity: 1;" vector-effect="non-scaling-stroke" transform=" translate(-671.3047, -440.3008)" d="M 864.96638 441.31617 L 477.643 441.31617 C 477.09093058255775 441.30404138782546 476.6497164805607 440.85302763029824 476.6497164805607 440.30082500000003 C 476.6497164805607 439.74862236970176 477.09093058255775 439.29760861217454 477.643 439.28548 L 864.96638 439.28548 C 865.5184494174422 439.29760861217454 865.9596635194392 439.74862236970176 865.9596635194392 440.300825 C 865.9596635194392 440.85302763029824 865.5184494174422 441.30404138782546 864.96638 441.31617 Z" stroke-linecap="round"/>
</g>
		<g transform="matrix(1.16 0 0 1.16 -58.21 35.6788)">
<ellipse style="stroke: none; stroke-width: 1; stroke-dasharray: none; stroke-linecap: butt; stroke-dashoffset: 0; stroke-linejoin: miter; stroke-miterlimit: 4; is-custom-font: none; font-file-url: none; fill: rgb(63,61,86); fill-rule: nonzero; opacity: 1;" vector-effect="non-scaling-stroke" cx="0" cy="0" rx="10.92534" ry="11.16881"/>
</g>
		<g transform="matrix(1.16 0 0 1.16 -14.4316 35.6788)">
<ellipse style="stroke: none; stroke-width: 1; stroke-dasharray: none; stroke-linecap: butt; stroke-dashoffset: 0; stroke-linejoin: miter; stroke-miterlimit: 4; is-custom-font: none; font-file-url: none; fill: rgb(63,61,86); fill-rule: nonzero; opacity: 1;" vector-effect="non-scaling-stroke" cx="0" cy="0" rx="10.92534" ry="11.16881"/>
</g>
		<g transform="matrix(1.16 0 0 1.16 29.3468 35.6788)">
<ellipse style="stroke: none; stroke-width: 1; stroke-dasharray: none; stroke-linecap: butt; stroke-dashoffset: 0; stroke-linejoin: miter; stroke-miterlimit: 4; is-custom-font: none; font-file-url: none; fill: rgb(63,61,86); fill-rule: nonzero; opacity: 1;" vector-effect="non-scaling-stroke" cx="0" cy="0" rx="10.92534" ry="11.16881"/>
</g>
		<g transform="matrix(1.16 0 0 1.16 323.3654 28.2919)">
<path style="stroke: none; stroke-width: 1; stroke-dasharray: none; stroke-linecap: butt; stroke-dashoffset: 0; stroke-linejoin: miter; stroke-miterlimit: 4; is-custom-font: none; font-file-url: none; fill: rgb(63,61,86); fill-rule: nonzero; opacity: 1;" vector-effect="non-scaling-stroke" transform=" translate(-828.9444, -409.562)" d="M 842.34936 407.532 L 815.5393600000001 407.532 C 814.4339262070198 407.5539457841876 813.5492608684771 408.4563483875531 813.5492608684771 409.562 C 813.5492608684771 410.6676516124469 814.4339262070198 411.5700542158124 815.5393600000001 411.592 L 842.34936 411.592 C 843.4547937929804 411.5700542158124 844.3394591315231 410.6676516124469 844.3394591315231 409.562 C 844.3394591315231 408.4563483875531 843.4547937929804 407.5539457841876 842.34936 407.532 Z" stroke-linecap="round"/>
</g>
		<g transform="matrix(1.16 0 0 1.16 323.3654 37.1311)">
<path style="stroke: none; stroke-width: 1; stroke-dasharray: none; stroke-linecap: butt; stroke-dashoffset: 0; stroke-linejoin: miter; stroke-miterlimit: 4; is-custom-font: none; font-file-url: none; fill: rgb(63,61,86); fill-rule: nonzero; opacity: 1;" vector-effect="non-scaling-stroke" transform=" translate(-828.9444, -417.182)" d="M 842.34936 415.152 L 815.5393600000001 415.152 C 814.4339262070198 415.1739457841876 813.5492608684771 416.0763483875531 813.5492608684771 417.182 C 813.5492608684771 418.2876516124469 814.4339262070198 419.1900542158124 815.5393600000001 419.212 L 842.34936 419.212 C 843.4547937929804 419.1900542158124 844.3394591315231 418.2876516124469 844.3394591315231 417.182 C 844.3394591315231 416.0763483875531 843.4547937929804 415.1739457841876 842.34936 415.152 Z" stroke-linecap="round"/>
</g>
		<g transform="matrix(1.16 0 0 1.16 323.3654 45.9587)">
<path style="stroke: none; stroke-width: 1; stroke-dasharray: none; stroke-linecap: butt; stroke-dashoffset: 0; stroke-linejoin: miter; stroke-miterlimit: 4; is-custom-font: none; font-file-url: none; fill: rgb(63,61,86); fill-rule: nonzero; opacity: 1;" vector-effect="non-scaling-stroke" transform=" translate(-828.9444, -424.792)" d="M 842.34936 422.762 L 815.5393600000001 422.762 C 814.4339262070198 422.7839457841876 813.5492608684771 423.6863483875531 813.5492608684771 424.79200000000003 C 813.5492608684771 425.8976516124469 814.4339262070198 426.8000542158124 815.5393600000001 426.822 L 842.34936 426.822 C 843.4547937929804 426.8000542158124 844.3394591315231 425.8976516124469 844.3394591315231 424.79200000000003 C 844.3394591315231 423.6863483875531 843.4547937929804 422.7839457841876 842.34936 422.762 Z" stroke-linecap="round"/>
</g>
		<g transform="matrix(1.16 0 0 1.16 145.2193 198.4071)">
<path style="stroke: none; stroke-width: 1; stroke-dasharray: none; stroke-linecap: butt; stroke-dashoffset: 0; stroke-linejoin: miter; stroke-miterlimit: 4; is-custom-font: none; font-file-url: none; fill: rgb(255,255,255); fill-rule: nonzero; opacity: 0.35;" vector-effect="non-scaling-stroke" transform=" translate(-675.3701, -556.213)" d="M 875.22825 564.89606 C 881.46225 562.17795 868.81975 560.59564 854.47625 560.0754000000001 C 840.1327500000001 559.5551600000001 822.78125 559.5839400000001 813.6149800000001 558.10419 C 804.74985 556.67306 805.40304 554.12842 804.65732 551.82289 C 803.9116 549.51736 800.50349 547.1533800000001 786.67037 546.64089 C 769.4325200000001 546.00225 741.0062700000001 548.46054 727.99359 546.98468 C 715.85033 545.60743 723.0685900000001 541.28728 705.3615900000001 541.12194 C 695.2503800000001 541.02752 682.22436 542.4518 670.9735900000001 542.79552 C 662.9986165945514 543.1414878000165 655.0088286424801 542.7249295601971 647.1130700000001 541.55152 C 641.6293000000001 540.65307 637.8098200000001 539.5140299999999 631.6380700000001 538.72045 C 615.43474 536.63696 583.7332900000001 537.33729 555.4385800000001 540.00757 C 527.1438700000001 542.6778499999999 502.89010000000013 547.05393 489.2117500000001 551.38823 C 475.5334000000001 555.72253 471.7544 559.99 474.94061 563.60875 C 476.97517999999997 565.9195599999999 482.18161 568.08029 494.81104 569.0088499999999 C 518.43361 570.7456599999999 560.49151 567.75613 584.9014 569.3363099999999 C 598.50608 570.21701 604.54169 572.4005299999999 616.4784 573.5953099999999 C 629.3023999999999 574.8789199999999 648.07556 574.9469599999999 666.52022 574.9165099999999 C 704.92432 574.8530999999999 744.31072 574.4585099999999 784.47284 573.7349399999999 C 801.24784 573.43269 818.8247700000001 573.0397499999999 836.67484 571.5994 C 854.52491 570.15905 872.73127 567.3799899999999 876.49719 564.77473" stroke-linecap="round"/>
</g>
		<g transform="matrix(3.42 0 0 3.42 146.08 204.2)" id="b5da03b4-94a0-4193-b5ce-4874ee4c09ac">
<circle style="stroke: rgb(255,255,255); stroke-width: 0; stroke-dasharray: none; stroke-linecap: butt; stroke-dashoffset: 0; stroke-linejoin: miter; stroke-miterlimit: 4; is-custom-font: none; font-file-url: none; fill: rgb(255,255,255); fill-rule: nonzero; opacity: 1;" vector-effect="non-scaling-stroke" cx="0" cy="0" r="35"/>
</g>
</g>
</g>
<g transform="matrix(1 0 0 1 680.1065 737.4694)" style="" id="916867">
		
<path xml:space="preserve" font-family="Nunito" font-size="129" font-style="normal" font-weight="bold" style="stroke: none; stroke-width: 0; stroke-dasharray: none; stroke-linecap: butt; stroke-dashoffset: 0; stroke-linejoin: miter; stroke-miterlimit: 4; is-custom-font: none; font-file-url: none; fill: rgb(0,0,0); fill-rule: nonzero; opacity: 1; white-space: pre;" d="M-106.17-101.05L-106.17-101.05Q-110.68-101.05-113.20-103.31Q-115.71-105.57-115.71-109.57L-115.71-109.57Q-115.71-113.70-113.20-115.89Q-110.68-118.08-106.17-118.08L-106.17-118.08Q-96.62-118.08-96.62-109.57L-96.62-109.57Q-96.62-101.05-106.17-101.05ZM-122.42-0.69L-122.42-0.69Q-126.03-0.43-127.90-2.05Q-129.77-3.66-130.03-5.98Q-130.29-8.30-129.06-10.24Q-127.84-12.17-125.26-12.43L-125.26-12.43Q-119.45-12.95-116.81-15.72Q-114.17-18.49-114.17-24.17L-114.17-24.17L-114.17-81.06Q-114.17-89.19-106.04-89.19L-106.04-89.19Q-98.04-89.19-98.04-81.06L-98.04-81.06L-98.04-25.59Q-98.04-13.08-103.97-7.40Q-109.91-1.72-122.42-0.69ZM-52.50-23.78L-52.50-23.78Q-62.31-23.78-69.53-27.78Q-76.75-31.78-80.75-39.20Q-84.75-46.62-84.75-56.68L-84.75-56.68Q-84.75-66.74-80.75-74.09Q-76.75-81.45-69.53-85.44Q-62.31-89.44-52.50-89.44L-52.50-89.44Q-42.70-89.44-35.48-85.44Q-28.25-81.45-24.25-74.09Q-20.25-66.74-20.25-56.68L-20.25-56.68Q-20.25-46.62-24.25-39.20Q-28.25-31.78-35.48-27.78Q-42.70-23.78-52.50-23.78ZM-52.50-36.04L-52.50-36.04Q-45.28-36.04-40.89-41.26Q-36.51-46.49-36.51-56.68L-36.51-56.68Q-36.51-67.00-40.89-72.09Q-45.28-77.19-52.50-77.19L-52.50-77.19Q-59.73-77.19-64.11-72.09Q-68.50-67.00-68.50-56.68L-68.50-56.68Q-68.50-46.49-64.11-41.26Q-59.73-36.04-52.50-36.04ZM16.13-23.78L16.13-23.78Q10.58-23.78 4.39-24.94Q-1.81-26.10-6.71-28.94L-6.71-28.94Q-9.42-30.49-10.06-32.75Q-10.71-35.01-9.87-37.00Q-9.03-39.00-7.03-39.91Q-5.03-40.81-2.32-39.52L-2.32-39.52Q2.84-37.07 7.35-36.10Q11.87-35.13 16.25-35.13L16.25-35.13Q22.45-35.13 25.48-37.26Q28.51-39.39 28.51-42.87L28.51-42.87Q28.51-48.29 20.51-49.84L20.51-49.84L7.61-52.29Q-8.77-55.39-8.77-69.32L-8.77-69.32Q-8.77-75.51-5.35-80.03Q-1.93-84.54 4.13-86.99Q10.19-89.44 18.06-89.44L18.06-89.44Q29.41-89.44 38.31-84.41L38.31-84.41Q40.76-83.12 41.22-80.86Q41.67-78.61 40.70-76.61Q39.73-74.61 37.67-73.77Q35.60-72.93 32.90-74.22L32.90-74.22Q28.90-76.29 25.22-77.19Q21.54-78.09 18.19-78.09L18.19-78.09Q11.87-78.09 8.84-75.90Q5.80-73.71 5.80-70.09L5.80-70.09Q5.80-64.42 13.16-63.13L13.16-63.13L26.06-60.68Q34.44-59.13 38.76-55.00Q43.09-50.87 43.09-43.91L43.09-43.91Q43.09-34.49 35.73-29.14Q28.38-23.78 16.13-23.78ZM63.98-24.04L63.98-24.04Q55.99-24.04 55.99-32.30L55.99-32.30L55.99-108.92Q55.99-117.05 63.98-117.05L63.98-117.05Q72.11-117.05 72.11-108.92L72.11-108.92L72.11-78.99Q75.34-84.15 80.75-86.80Q86.17-89.44 92.75-89.44L92.75-89.44Q115.07-89.44 115.07-63.51L115.07-63.51L115.07-32.30Q115.07-24.04 107.07-24.04L107.07-24.04Q98.94-24.04 98.94-32.30L98.94-32.30L98.94-62.74Q98.94-70.09 96.17-73.45Q93.40-76.80 87.59-76.80L87.59-76.80Q80.50-76.80 76.30-72.35Q72.11-67.90 72.11-60.55L72.11-60.55L72.11-32.30Q72.11-24.04 63.98-24.04Z"/><path xml:space="preserve" font-family="Nunito" font-size="129" font-style="normal" font-weight="bold" style="stroke: none; stroke-width: 0; stroke-dasharray: none; stroke-linecap: butt; stroke-dashoffset: 0; stroke-linejoin: miter; stroke-miterlimit: 4; is-custom-font: none; font-file-url: none; fill: rgb(0,0,0); fill-rule: nonzero; opacity: 1; white-space: pre;" d="M-98.75 107.41L-98.75 107.41Q-105.72 107.41-111.13 104.38Q-116.55 101.35-119.26 96.19L-119.26 96.19L-119.26 98.90Q-119.26 107.15-127.13 107.15L-127.13 107.15Q-135.13 107.15-135.13 98.90L-135.13 98.90L-135.13 22.27Q-135.13 14.14-127.13 14.14L-127.13 14.14Q-119.00 14.14-119.00 22.27L-119.00 22.27L-119.00 52.33Q-116.16 47.55-110.81 44.65Q-105.46 41.75-98.75 41.75L-98.75 41.75Q-90.36 41.75-84.17 45.75Q-77.98 49.75-74.50 57.04Q-71.01 64.32-71.01 74.52L-71.01 74.52Q-71.01 84.58-74.50 92.00Q-77.98 99.41-84.24 103.41Q-90.49 107.41-98.75 107.41ZM-103.26 95.16L-103.26 95.16Q-96.04 95.16-91.65 89.93Q-87.27 84.71-87.27 74.52L-87.27 74.52Q-87.27 64.20-91.65 59.10Q-96.04 54.00-103.26 54.00L-103.26 54.00Q-110.49 54.00-114.87 59.10Q-119.26 64.20-119.26 74.52L-119.26 74.52Q-119.26 84.71-114.87 89.93Q-110.49 95.16-103.26 95.16ZM-36.96 107.41L-36.96 107.41Q-43.80 107.41-49.15 104.77Q-54.50 102.12-57.53 97.61Q-60.57 93.09-60.57 87.42L-60.57 87.42Q-60.57 80.45-56.95 76.39Q-53.34 72.32-45.21 70.52Q-37.09 68.71-23.41 68.71L-23.41 68.71L-18.90 68.71L-18.90 66.00Q-18.90 59.55-21.74 56.71Q-24.57 53.88-31.28 53.88L-31.28 53.88Q-35.02 53.88-39.34 54.78Q-43.67 55.68-48.44 57.87L-48.44 57.87Q-51.54 59.29-53.60 58.20Q-55.66 57.10-56.37 54.71Q-57.08 52.33-56.11 49.88Q-55.15 47.43-52.18 46.26L-52.18 46.26Q-46.25 43.81-40.76 42.78Q-35.28 41.75-30.77 41.75L-30.77 41.75Q-16.96 41.75-10.26 48.14Q-3.55 54.52-3.55 67.94L-3.55 67.94L-3.55 98.90Q-3.55 107.15-11.03 107.15L-11.03 107.15Q-18.64 107.15-18.64 98.90L-18.64 98.90L-18.64 96.06Q-20.83 101.35-25.61 104.38Q-30.38 107.41-36.96 107.41ZM-33.60 96.32L-33.60 96.32Q-27.28 96.32-23.09 91.93Q-18.90 87.54-18.90 80.84L-18.90 80.84L-18.90 78.00L-23.28 78.00Q-35.41 78.00-40.12 79.87Q-44.83 81.74-44.83 86.64L-44.83 86.64Q-44.83 90.90-41.86 93.61Q-38.89 96.32-33.60 96.32ZM43.92 107.41L43.92 107.41Q33.22 107.41 25.48 103.41Q17.74 99.41 13.55 92.06Q9.35 84.71 9.35 74.64L9.35 74.64Q9.35 64.84 13.42 57.49Q17.48 50.13 24.64 45.94Q31.80 41.75 40.96 41.75L40.96 41.75Q54.37 41.75 62.18 50.26Q69.98 58.78 69.98 73.48L69.98 73.48Q69.98 78.26 63.79 78.26L63.79 78.26L24.83 78.26Q26.64 95.16 44.18 95.16L44.18 95.16Q47.54 95.16 51.73 94.32Q55.92 93.48 59.66 91.41L59.66 91.41Q63.02 89.48 65.34 90.19Q67.66 90.90 68.63 92.96Q69.60 95.03 68.89 97.54Q68.18 100.06 65.21 101.86L65.21 101.86Q60.69 104.70 54.83 106.06Q48.96 107.41 43.92 107.41ZM41.60 52.71L41.60 52.71Q34.51 52.71 30.12 57.10Q25.74 61.49 24.83 68.97L24.83 68.97L56.57 68.97Q56.05 61.10 52.25 56.91Q48.44 52.71 41.60 52.71ZM90.75 107.15L90.75 107.15Q82.75 107.15 82.75 98.90L82.75 98.90L82.75 22.27Q82.75 14.14 90.75 14.14L90.75 14.14Q98.88 14.14 98.88 22.27L98.88 22.27L98.88 69.87L99.14 69.87L120.42 47.43Q123.00 44.85 124.94 43.43Q126.87 42.01 130.23 42.01L130.23 42.01Q133.58 42.01 135.32 43.75Q137.06 45.49 137.06 47.94Q137.06 50.39 134.74 52.84L134.74 52.84L115.39 73.23L136.93 96.45Q139.26 98.90 139.06 101.41Q138.87 103.93 136.93 105.54Q135.00 107.15 132.03 107.15L132.03 107.15Q128.42 107.15 126.29 105.73Q124.16 104.31 121.58 101.48L121.58 101.48L99.14 78.00L98.88 78.00L98.88 98.90Q98.88 107.15 90.75 107.15Z"/></g>
<g transform="matrix(1 0 0 1 680.1065 356.305)" style="" id="831924">
		
<path xml:space="preserve" font-family="Nunito" font-size="36" font-style="normal" font-weight="bold" style="stroke: none; stroke-width: 0; stroke-dasharray: none; stroke-linecap: butt; stroke-dashoffset: 0; stroke-linejoin: miter; stroke-miterlimit: 4; is-custom-font: none; font-file-url: none; fill: rgb(0,0,0); fill-rule: nonzero; opacity: 1; white-space: pre;" d="M-111.53-6.64L-111.53-6.64Q-118.51-6.64-118.51-13.55L-118.51-13.55L-118.51-21.22L-120.38-21.22Q-122.18-21.22-122.18-22.91L-122.18-22.91Q-122.18-24.60-120.38-24.60L-120.38-24.60L-118.51-24.60L-118.51-27.88Q-118.51-30.15-116.24-30.15L-116.24-30.15Q-114.01-30.15-114.01-27.88L-114.01-27.88L-114.01-24.60L-110.20-24.60Q-108.40-24.60-108.40-22.91L-108.40-22.91Q-108.40-21.22-110.20-21.22L-110.20-21.22L-114.01-21.22L-114.01-13.80Q-114.01-12.07-113.26-11.21Q-112.50-10.35-110.81-10.35L-110.81-10.35Q-110.20-10.35-109.73-10.45Q-109.26-10.56-108.90-10.60L-108.90-10.60Q-108.47-10.63-108.18-10.33Q-107.89-10.02-107.89-9.09L-107.89-9.09Q-107.89-8.37-108.13-7.81Q-108.36-7.25-108.97-7.03L-108.97-7.03Q-109.44-6.89-110.20-6.76Q-110.95-6.64-111.53-6.64ZM-97.92-6.64L-97.92-6.64Q-100.66-6.64-102.67-7.75Q-104.69-8.87-105.80-10.94Q-106.92-13.01-106.92-15.82L-106.92-15.82Q-106.92-18.63-105.80-20.68Q-104.69-22.73-102.67-23.85Q-100.66-24.96-97.92-24.96L-97.92-24.96Q-95.18-24.96-93.17-23.85Q-91.15-22.73-90.04-20.68Q-88.92-18.63-88.92-15.82L-88.92-15.82Q-88.92-13.01-90.04-10.94Q-91.15-8.87-93.17-7.75Q-95.18-6.64-97.92-6.64ZM-97.92-10.06L-97.92-10.06Q-95.90-10.06-94.68-11.52Q-93.46-12.97-93.46-15.82L-93.46-15.82Q-93.46-18.70-94.68-20.12Q-95.90-21.54-97.92-21.54L-97.92-21.54Q-99.94-21.54-101.16-20.12Q-102.38-18.70-102.38-15.82L-102.38-15.82Q-102.38-12.97-101.16-11.52Q-99.94-10.06-97.92-10.06ZM-82.91-6.71L-82.91-6.71Q-85.21-6.71-85.21-9.01L-85.21-9.01L-85.21-22.62Q-85.21-24.89-83.02-24.89L-83.02-24.89Q-80.82-24.89-80.82-22.62L-80.82-22.62L-80.82-21.51Q-79.52-24.60-75.28-24.96L-75.28-24.96Q-73.73-25.14-73.55-23.20L-73.55-23.20Q-73.37-21.29-75.42-21.07L-75.42-21.07L-76.21-21.00Q-80.64-20.57-80.64-16.47L-80.64-16.47L-80.64-9.01Q-80.64-6.71-82.91-6.71ZM-63.36-6.64L-63.36-6.64Q-66.10-6.64-68.11-7.75Q-70.13-8.87-71.24-10.94Q-72.36-13.01-72.36-15.82L-72.36-15.82Q-72.36-18.63-71.24-20.68Q-70.13-22.73-68.11-23.85Q-66.10-24.96-63.36-24.96L-63.36-24.96Q-60.62-24.96-58.61-23.85Q-56.59-22.73-55.48-20.68Q-54.36-18.63-54.36-15.82L-54.36-15.82Q-54.36-13.01-55.48-10.94Q-56.59-8.87-58.61-7.75Q-60.62-6.64-63.36-6.64ZM-63.36-10.06L-63.36-10.06Q-61.34-10.06-60.12-11.52Q-58.90-12.97-58.90-15.82L-58.90-15.82Q-58.90-18.70-60.12-20.12Q-61.34-21.54-63.36-21.54L-63.36-21.54Q-65.38-21.54-66.60-20.12Q-67.82-18.70-67.82-15.82L-67.82-15.82Q-67.82-12.97-66.60-11.52Q-65.38-10.06-63.36-10.06ZM-48.42-6.71L-48.42-6.71Q-50.65-6.71-50.65-9.01L-50.65-9.01L-50.65-22.62Q-50.65-24.89-48.46-24.89L-48.46-24.89Q-46.26-24.89-46.26-22.62L-46.26-22.62L-46.26-21.87Q-45.36-23.38-43.83-24.17Q-42.30-24.96-40.39-24.96L-40.39-24.96Q-34.16-24.96-34.16-17.73L-34.16-17.73L-34.16-9.01Q-34.16-6.71-36.40-6.71L-36.40-6.71Q-38.66-6.71-38.66-9.01L-38.66-9.01L-38.66-17.51Q-38.66-19.56-39.44-20.50Q-40.21-21.43-41.83-21.43L-41.83-21.43Q-43.81-21.43-44.98-20.19Q-46.15-18.95-46.15-16.90L-46.15-16.90L-46.15-9.01Q-46.15-6.71-48.42-6.71ZM-21.53-6.64L-21.53-6.64Q-28.51-6.64-28.51-13.55L-28.51-13.55L-28.51-21.22L-30.38-21.22Q-32.18-21.22-32.18-22.91L-32.18-22.91Q-32.18-24.60-30.38-24.60L-30.38-24.60L-28.51-24.60L-28.51-27.88Q-28.51-30.15-26.24-30.15L-26.24-30.15Q-24.01-30.15-24.01-27.88L-24.01-27.88L-24.01-24.60L-20.20-24.60Q-18.40-24.60-18.40-22.91L-18.40-22.91Q-18.40-21.22-20.20-21.22L-20.20-21.22L-24.01-21.22L-24.01-13.80Q-24.01-12.07-23.26-11.21Q-22.50-10.35-20.81-10.35L-20.81-10.35Q-20.20-10.35-19.73-10.45Q-19.26-10.56-18.90-10.60L-18.90-10.60Q-18.47-10.63-18.18-10.33Q-17.89-10.02-17.89-9.09L-17.89-9.09Q-17.89-8.37-18.13-7.81Q-18.36-7.25-18.97-7.03L-18.97-7.03Q-19.44-6.89-20.20-6.76Q-20.95-6.64-21.53-6.64ZM-7.92-6.64L-7.92-6.64Q-10.66-6.64-12.67-7.75Q-14.69-8.87-15.80-10.94Q-16.92-13.01-16.92-15.82L-16.92-15.82Q-16.92-18.63-15.80-20.68Q-14.69-22.73-12.67-23.85Q-10.66-24.96-7.92-24.96L-7.92-24.96Q-5.18-24.96-3.17-23.85Q-1.15-22.73-0.04-20.68Q1.08-18.63 1.08-15.82L1.08-15.82Q1.08-13.01-0.04-10.94Q-1.15-8.87-3.17-7.75Q-5.18-6.64-7.92-6.64ZM-7.92-10.06L-7.92-10.06Q-5.90-10.06-4.68-11.52Q-3.46-12.97-3.46-15.82L-3.46-15.82Q-3.46-18.70-4.68-20.12Q-5.90-21.54-7.92-21.54L-7.92-21.54Q-9.94-21.54-11.16-20.12Q-12.38-18.70-12.38-15.82L-12.38-15.82Q-12.38-12.97-11.16-11.52Q-9.94-10.06-7.92-10.06ZM24.70-6.64L24.70-6.64Q22.75-6.64 21.24-7.48Q19.73-8.33 18.97-9.77L18.97-9.77L18.97-9.01Q18.97-6.71 16.78-6.71L16.78-6.71Q14.54-6.71 14.54-9.01L14.54-9.01L14.54-30.40Q14.54-32.67 16.78-32.67L16.78-32.67Q19.04-32.67 19.04-30.40L19.04-30.40L19.04-22.01Q19.84-23.34 21.33-24.15Q22.82-24.96 24.70-24.96L24.70-24.96Q27.04-24.96 28.76-23.85Q30.49-22.73 31.46-20.70Q32.44-18.66 32.44-15.82L32.44-15.82Q32.44-13.01 31.46-10.94Q30.49-8.87 28.75-7.75Q27.00-6.64 24.70-6.64ZM23.44-10.06L23.44-10.06Q25.45-10.06 26.68-11.52Q27.90-12.97 27.90-15.82L27.90-15.82Q27.90-18.70 26.68-20.12Q25.45-21.54 23.44-21.54L23.44-21.54Q21.42-21.54 20.20-20.12Q18.97-18.70 18.97-15.82L18.97-15.82Q18.97-12.97 20.20-11.52Q21.42-10.06 23.44-10.06ZM41.94-6.64L41.94-6.64Q40.03-6.64 38.54-7.38Q37.04-8.11 36.20-9.37Q35.35-10.63 35.35-12.22L35.35-12.22Q35.35-14.16 36.36-15.30Q37.37-16.43 39.64-16.93Q41.90-17.44 45.72-17.44L45.72-17.44L46.98-17.44L46.98-18.19Q46.98-19.99 46.19-20.79Q45.40-21.58 43.52-21.58L43.52-21.58Q42.48-21.58 41.27-21.33Q40.07-21.07 38.74-20.46L38.74-20.46Q37.87-20.07 37.30-20.37Q36.72-20.68 36.52-21.34Q36.32-22.01 36.59-22.69Q36.86-23.38 37.69-23.70L37.69-23.70Q39.35-24.39 40.88-24.67Q42.41-24.96 43.67-24.96L43.67-24.96Q47.52-24.96 49.39-23.18Q51.26-21.40 51.26-17.65L51.26-17.65L51.26-9.01Q51.26-6.71 49.18-6.71L49.18-6.71Q47.05-6.71 47.05-9.01L47.05-9.01L47.05-9.80Q46.44-8.33 45.11-7.48Q43.78-6.64 41.94-6.64ZM42.88-9.73L42.88-9.73Q44.64-9.73 45.81-10.96Q46.98-12.18 46.98-14.05L46.98-14.05L46.98-14.85L45.76-14.85Q42.37-14.85 41.06-14.32Q39.74-13.80 39.74-12.43L39.74-12.43Q39.74-11.25 40.57-10.49Q41.40-9.73 42.88-9.73ZM62.28-6.64L62.28-6.64Q60.73-6.64 59.00-6.96Q57.28-7.29 55.91-8.08L55.91-8.08Q55.15-8.51 54.97-9.14Q54.79-9.77 55.03-10.33Q55.26-10.88 55.82-11.14Q56.38-11.39 57.13-11.03L57.13-11.03Q58.57-10.35 59.83-10.07Q61.09-9.80 62.32-9.80L62.32-9.80Q64.04-9.80 64.89-10.40Q65.74-10.99 65.74-11.96L65.74-11.96Q65.74-13.48 63.50-13.91L63.50-13.91L59.90-14.59Q55.33-15.46 55.33-19.34L55.33-19.34Q55.33-21.07 56.29-22.33Q57.24-23.59 58.93-24.28Q60.62-24.96 62.82-24.96L62.82-24.96Q65.99-24.96 68.47-23.56L68.47-23.56Q69.16-23.20 69.28-22.57Q69.41-21.94 69.14-21.38Q68.87-20.82 68.29-20.59Q67.72-20.35 66.96-20.71L66.96-20.71Q65.84-21.29 64.82-21.54Q63.79-21.79 62.86-21.79L62.86-21.79Q61.09-21.79 60.25-21.18Q59.40-20.57 59.40-19.56L59.40-19.56Q59.40-17.98 61.45-17.62L61.45-17.62L65.05-16.93Q67.39-16.50 68.60-15.35Q69.80-14.20 69.80-12.25L69.80-12.25Q69.80-9.63 67.75-8.13Q65.70-6.64 62.28-6.64ZM82.08-6.64L82.08-6.64Q79.09-6.64 76.93-7.75Q74.77-8.87 73.60-10.92Q72.43-12.97 72.43-15.78L72.43-15.78Q72.43-18.52 73.57-20.57Q74.70-22.62 76.70-23.79Q78.70-24.96 81.25-24.96L81.25-24.96Q85.00-24.96 87.17-22.59Q89.35-20.21 89.35-16.11L89.35-16.11Q89.35-14.77 87.62-14.77L87.62-14.77L76.75-14.77Q77.26-10.06 82.15-10.06L82.15-10.06Q83.09-10.06 84.26-10.29Q85.43-10.53 86.47-11.10L86.47-11.10Q87.41-11.64 88.06-11.44Q88.70-11.25 88.97-10.67Q89.24-10.09 89.05-9.39Q88.85-8.69 88.02-8.19L88.02-8.19Q86.76-7.39 85.12-7.01Q83.48-6.64 82.08-6.64ZM81.43-21.90L81.43-21.90Q79.45-21.90 78.23-20.68Q77.00-19.45 76.75-17.37L76.75-17.37L85.61-17.37Q85.46-19.56 84.40-20.73Q83.34-21.90 81.43-21.90ZM99.68-6.64L99.68-6.64Q97.38-6.64 95.63-7.75Q93.89-8.87 92.92-10.94Q91.94-13.01 91.94-15.82L91.94-15.82Q91.94-18.66 92.92-20.70Q93.89-22.73 95.63-23.85Q97.38-24.96 99.68-24.96L99.68-24.96Q101.56-24.96 103.07-24.13Q104.58-23.31 105.34-21.94L105.34-21.94L105.34-30.40Q105.34-32.67 107.57-32.67L107.57-32.67Q109.84-32.67 109.84-30.40L109.84-30.40L109.84-9.01Q109.84-6.71 107.60-6.71L107.60-6.71Q105.37-6.71 105.37-9.01L105.37-9.01L105.37-9.77Q104.62-8.33 103.10-7.48Q101.59-6.64 99.68-6.64ZM100.94-10.06L100.94-10.06Q102.96-10.06 104.18-11.52Q105.41-12.97 105.41-15.82L105.41-15.82Q105.41-18.70 104.18-20.12Q102.96-21.54 100.94-21.54L100.94-21.54Q98.93-21.54 97.70-20.12Q96.48-18.70 96.48-15.82L96.48-15.82Q96.48-12.97 97.70-11.52Q98.93-10.06 100.94-10.06Z"/><path xml:space="preserve" font-family="Nunito" font-size="36" font-style="normal" font-weight="bold" style="stroke: none; stroke-width: 0; stroke-dasharray: none; stroke-linecap: butt; stroke-dashoffset: 0; stroke-linejoin: miter; stroke-miterlimit: 4; is-custom-font: none; font-file-url: none; fill: rgb(0,0,0); fill-rule: nonzero; opacity: 1; white-space: pre;" d="M-203.15 29.90L-203.15 29.90Q-205.42 29.90-205.42 27.60L-205.42 27.60L-205.42 15.39L-207.07 15.39Q-208.87 15.39-208.87 13.70L-208.87 13.70Q-208.87 12.01-207.07 12.01L-207.07 12.01L-205.42 12.01L-205.42 11.97Q-205.42 8.27-203.54 6.41Q-201.67 4.56-198.14 4.23L-198.14 4.23L-196.92 4.13Q-195.98 4.05-195.55 4.52Q-195.12 4.99-195.10 5.66Q-195.08 6.32-195.44 6.84Q-195.80 7.37-196.49 7.44L-196.49 7.44L-196.99 7.47Q-199.04 7.62-199.98 8.52Q-200.92 9.42-200.92 11.25L-200.92 11.25L-200.92 12.01L-197.86 12.01Q-196.06 12.01-196.06 13.70L-196.06 13.70Q-196.06 15.39-197.86 15.39L-197.86 15.39L-200.92 15.39L-200.92 27.60Q-200.92 29.90-203.15 29.90ZM-191.20 29.90L-191.20 29.90Q-193.50 29.90-193.50 27.60L-193.50 27.60L-193.50 13.99Q-193.50 11.72-191.30 11.72L-191.30 11.72Q-189.11 11.72-189.11 13.99L-189.11 13.99L-189.11 15.11Q-187.81 12.01-183.56 11.65L-183.56 11.65Q-182.02 11.47-181.84 13.41L-181.84 13.41Q-181.66 15.32-183.71 15.54L-183.71 15.54L-184.50 15.61Q-188.93 16.04-188.93 20.15L-188.93 20.15L-188.93 27.60Q-188.93 29.90-191.20 29.90ZM-171.65 29.97L-171.65 29.97Q-174.38 29.97-176.40 28.86Q-178.42 27.74-179.53 25.67Q-180.65 23.60-180.65 20.79L-180.65 20.79Q-180.65 17.99-179.53 15.93Q-178.42 13.88-176.40 12.77Q-174.38 11.65-171.65 11.65L-171.65 11.65Q-168.91 11.65-166.90 12.77Q-164.88 13.88-163.76 15.93Q-162.65 17.99-162.65 20.79L-162.65 20.79Q-162.65 23.60-163.76 25.67Q-164.88 27.74-166.90 28.86Q-168.91 29.97-171.65 29.97ZM-171.65 26.55L-171.65 26.55Q-169.63 26.55-168.41 25.10Q-167.18 23.64-167.18 20.79L-167.18 20.79Q-167.18 17.91-168.41 16.49Q-169.63 15.07-171.65 15.07L-171.65 15.07Q-173.66 15.07-174.89 16.49Q-176.11 17.91-176.11 20.79L-176.11 20.79Q-176.11 23.64-174.89 25.10Q-173.66 26.55-171.65 26.55ZM-156.71 29.90L-156.71 29.90Q-158.94 29.90-158.94 27.60L-158.94 27.60L-158.94 13.99Q-158.94 11.72-156.74 11.72L-156.74 11.72Q-154.55 11.72-154.55 13.99L-154.55 13.99L-154.55 14.75Q-153.65 13.23-152.12 12.44Q-150.59 11.65-148.68 11.65L-148.68 11.65Q-142.45 11.65-142.45 18.89L-142.45 18.89L-142.45 27.60Q-142.45 29.90-144.68 29.90L-144.68 29.90Q-146.95 29.90-146.95 27.60L-146.95 27.60L-146.95 19.10Q-146.95 17.05-147.73 16.11Q-148.50 15.18-150.12 15.18L-150.12 15.18Q-152.10 15.18-153.27 16.42Q-154.44 17.66-154.44 19.71L-154.44 19.71L-154.44 27.60Q-154.44 29.90-156.71 29.90ZM-129.82 29.97L-129.82 29.97Q-136.80 29.97-136.80 23.06L-136.80 23.06L-136.80 15.39L-138.67 15.39Q-140.47 15.39-140.47 13.70L-140.47 13.70Q-140.47 12.01-138.67 12.01L-138.67 12.01L-136.80 12.01L-136.80 8.73Q-136.80 6.47-134.53 6.47L-134.53 6.47Q-132.30 6.47-132.30 8.73L-132.30 8.73L-132.30 12.01L-128.48 12.01Q-126.68 12.01-126.68 13.70L-126.68 13.70Q-126.68 15.39-128.48 15.39L-128.48 15.39L-132.30 15.39L-132.30 22.81Q-132.30 24.54-131.54 25.40Q-130.79 26.27-129.10 26.27L-129.10 26.27Q-128.48 26.27-128.02 26.16Q-127.55 26.05-127.19 26.01L-127.19 26.01Q-126.76 25.98-126.47 26.28Q-126.18 26.59-126.18 27.53L-126.18 27.53Q-126.18 28.25-126.41 28.80Q-126.65 29.36-127.26 29.58L-127.26 29.58Q-127.73 29.72-128.48 29.85Q-129.24 29.97-129.82 29.97ZM-114.91 21.77L-122.58 21.77Q-123.37 21.77-123.89 21.24Q-124.42 20.72-124.42 19.97L-124.42 19.97Q-124.42 19.17-123.89 18.67Q-123.37 18.17-122.58 18.17L-122.58 18.17L-114.91 18.17Q-114.16 18.17-113.63 18.67Q-113.11 19.17-113.11 19.97L-113.11 19.97Q-113.11 20.72-113.63 21.24Q-114.16 21.77-114.91 21.77L-114.91 21.77ZM-99.40 29.97L-99.40 29.97Q-102.38 29.97-104.54 28.86Q-106.70 27.74-107.87 25.69Q-109.04 23.64-109.04 20.83L-109.04 20.83Q-109.04 18.09-107.91 16.04Q-106.78 13.99-104.78 12.82Q-102.78 11.65-100.22 11.65L-100.22 11.65Q-96.48 11.65-94.30 14.03Q-92.12 16.40-92.12 20.51L-92.12 20.51Q-92.12 21.84-93.85 21.84L-93.85 21.84L-104.72 21.84Q-104.22 26.55-99.32 26.55L-99.32 26.55Q-98.39 26.55-97.22 26.32Q-96.05 26.09-95.00 25.51L-95.00 25.51Q-94.07 24.97-93.42 25.17Q-92.77 25.37-92.50 25.94Q-92.23 26.52-92.43 27.22Q-92.63 27.92-93.46 28.43L-93.46 28.43Q-94.72 29.22-96.35 29.60Q-97.99 29.97-99.40 29.97ZM-100.04 14.71L-100.04 14.71Q-102.02 14.71-103.25 15.93Q-104.47 17.16-104.72 19.25L-104.72 19.25L-95.87 19.25Q-96.01 17.05-97.07 15.88Q-98.14 14.71-100.04 14.71ZM-86.33 29.90L-86.33 29.90Q-88.56 29.90-88.56 27.60L-88.56 27.60L-88.56 13.99Q-88.56 11.72-86.36 11.72L-86.36 11.72Q-84.17 11.72-84.17 13.99L-84.17 13.99L-84.17 14.75Q-83.27 13.23-81.74 12.44Q-80.21 11.65-78.30 11.65L-78.30 11.65Q-72.07 11.65-72.07 18.89L-72.07 18.89L-72.07 27.60Q-72.07 29.90-74.30 29.90L-74.30 29.90Q-76.57 29.90-76.57 27.60L-76.57 27.60L-76.57 19.10Q-76.57 17.05-77.35 16.11Q-78.12 15.18-79.74 15.18L-79.74 15.18Q-81.72 15.18-82.89 16.42Q-84.06 17.66-84.06 19.71L-84.06 19.71L-84.06 27.60Q-84.06 29.90-86.33 29.90ZM-60.73 29.97L-60.73 29.97Q-63.04 29.97-64.78 28.86Q-66.53 27.74-67.50 25.67Q-68.47 23.60-68.47 20.79L-68.47 20.79Q-68.47 17.95-67.50 15.92Q-66.53 13.88-64.78 12.77Q-63.04 11.65-60.73 11.65L-60.73 11.65Q-58.86 11.65-57.35 12.48Q-55.84 13.31-55.08 14.67L-55.08 14.67L-55.08 6.21Q-55.08 3.95-52.85 3.95L-52.85 3.95Q-50.58 3.95-50.58 6.21L-50.58 6.21L-50.58 27.60Q-50.58 29.90-52.81 29.90L-52.81 29.90Q-55.04 29.90-55.04 27.60L-55.04 27.60L-55.04 26.84Q-55.80 28.28-57.31 29.13Q-58.82 29.97-60.73 29.97ZM-59.47 26.55L-59.47 26.55Q-57.46 26.55-56.23 25.10Q-55.01 23.64-55.01 20.79L-55.01 20.79Q-55.01 17.91-56.23 16.49Q-57.46 15.07-59.47 15.07L-59.47 15.07Q-61.49 15.07-62.71 16.49Q-63.94 17.91-63.94 20.79L-63.94 20.79Q-63.94 23.64-62.71 25.10Q-61.49 26.55-59.47 26.55ZM-29.34 29.90L-29.34 29.90Q-31.21 29.90-31.93 28.03L-31.93 28.03L-37.15 14.71Q-37.62 13.45-37.10 12.59Q-36.58 11.72-35.24 11.72L-35.24 11.72Q-34.45 11.72-33.95 12.10Q-33.44 12.48-33.08 13.52L-33.08 13.52L-29.12 24.36L-25.06 13.23Q-24.48 11.72-23.00 11.72L-23.00 11.72Q-21.49 11.72-20.95 13.23L-20.95 13.23L-16.88 24.47L-12.89 13.41Q-12.53 12.44-11.97 12.08Q-11.41 11.72-10.73 11.72L-10.73 11.72Q-9.43 11.72-9.04 12.64Q-8.64 13.56-9.11 14.71L-9.11 14.71L-14.29 28.03Q-15.05 29.90-16.88 29.90L-16.88 29.90Q-18.79 29.90-19.48 28.03L-19.48 28.03L-23.15 18.27L-26.75 27.99Q-27.43 29.90-29.34 29.90ZM2.88 29.97L2.88 29.97Q-0.11 29.97-2.27 28.86Q-4.43 27.74-5.60 25.69Q-6.77 23.64-6.77 20.83L-6.77 20.83Q-6.77 18.09-5.63 16.04Q-4.50 13.99-2.50 12.82Q-0.50 11.65 2.05 11.65L2.05 11.65Q5.80 11.65 7.97 14.03Q10.15 16.40 10.15 20.51L10.15 20.51Q10.15 21.84 8.42 21.84L8.42 21.84L-2.45 21.84Q-1.94 26.55 2.95 26.55L2.95 26.55Q3.89 26.55 5.06 26.32Q6.23 26.09 7.27 25.51L7.27 25.51Q8.21 24.97 8.86 25.17Q9.50 25.37 9.77 25.94Q10.04 26.52 9.85 27.22Q9.65 27.92 8.82 28.43L8.82 28.43Q7.56 29.22 5.92 29.60Q4.28 29.97 2.88 29.97ZM2.23 14.71L2.23 14.71Q0.25 14.71-0.97 15.93Q-2.20 17.16-2.45 19.25L-2.45 19.25L6.41 19.25Q6.26 17.05 5.20 15.88Q4.14 14.71 2.23 14.71ZM23.87 29.97L23.87 29.97Q21.92 29.97 20.41 29.13Q18.90 28.28 18.14 26.84L18.14 26.84L18.14 27.60Q18.14 29.90 15.95 29.90L15.95 29.90Q13.72 29.90 13.72 27.60L13.72 27.60L13.72 6.21Q13.72 3.95 15.95 3.95L15.95 3.95Q18.22 3.95 18.22 6.21L18.22 6.21L18.22 14.60Q19.01 13.27 20.50 12.46Q22.00 11.65 23.87 11.65L23.87 11.65Q26.21 11.65 27.94 12.77Q29.66 13.88 30.64 15.92Q31.61 17.95 31.61 20.79L31.61 20.79Q31.61 23.60 30.64 25.67Q29.66 27.74 27.92 28.86Q26.17 29.97 23.87 29.97ZM22.61 26.55L22.61 26.55Q24.62 26.55 25.85 25.10Q27.07 23.64 27.07 20.79L27.07 20.79Q27.07 17.91 25.85 16.49Q24.62 15.07 22.61 15.07L22.61 15.07Q20.59 15.07 19.37 16.49Q18.14 17.91 18.14 20.79L18.14 20.79Q18.14 23.64 19.37 25.10Q20.59 26.55 22.61 26.55ZM51.84 29.97L51.84 29.97Q49.54 29.97 47.79 28.86Q46.04 27.74 45.07 25.67Q44.10 23.60 44.10 20.79L44.10 20.79Q44.10 17.95 45.07 15.92Q46.04 13.88 47.79 12.77Q49.54 11.65 51.84 11.65L51.84 11.65Q53.71 11.65 55.22 12.48Q56.74 13.31 57.49 14.67L57.49 14.67L57.49 6.21Q57.49 3.95 59.72 3.95L59.72 3.95Q61.99 3.95 61.99 6.21L61.99 6.21L61.99 27.60Q61.99 29.90 59.76 29.90L59.76 29.90Q57.53 29.90 57.53 27.60L57.53 27.60L57.53 26.84Q56.77 28.28 55.26 29.13Q53.75 29.97 51.84 29.97ZM53.10 26.55L53.10 26.55Q55.12 26.55 56.34 25.10Q57.56 23.64 57.56 20.79L57.56 20.79Q57.56 17.91 56.34 16.49Q55.12 15.07 53.10 15.07L53.10 15.07Q51.08 15.07 49.86 16.49Q48.64 17.91 48.64 20.79L48.64 20.79Q48.64 23.64 49.86 25.10Q51.08 26.55 53.10 26.55ZM75.35 29.97L75.35 29.97Q72.36 29.97 70.20 28.86Q68.04 27.74 66.87 25.69Q65.70 23.64 65.70 20.83L65.70 20.83Q65.70 18.09 66.83 16.04Q67.97 13.99 69.97 12.82Q71.96 11.65 74.52 11.65L74.52 11.65Q78.26 11.65 80.44 14.03Q82.62 16.40 82.62 20.51L82.62 20.51Q82.62 21.84 80.89 21.84L80.89 21.84L70.02 21.84Q70.52 26.55 75.42 26.55L75.42 26.55Q76.36 26.55 77.53 26.32Q78.70 26.09 79.74 25.51L79.74 25.51Q80.68 24.97 81.32 25.17Q81.97 25.37 82.24 25.94Q82.51 26.52 82.31 27.22Q82.12 27.92 81.29 28.43L81.29 28.43Q80.03 29.22 78.39 29.60Q76.75 29.97 75.35 29.97ZM74.70 14.71L74.70 14.71Q72.72 14.71 71.50 15.93Q70.27 17.16 70.02 19.25L70.02 19.25L78.88 19.25Q78.73 17.05 77.67 15.88Q76.61 14.71 74.70 14.71ZM93.02 29.90L93.02 29.90Q91.22 29.90 90.36 27.99L90.36 27.99L84.64 14.71Q84.13 13.52 84.62 12.62Q85.10 11.72 86.58 11.72L86.58 11.72Q87.41 11.72 87.91 12.10Q88.42 12.48 88.81 13.52L88.81 13.52L93.13 24.32L97.60 13.49Q97.99 12.48 98.51 12.10Q99.04 11.72 99.94 11.72L99.94 11.72Q101.09 11.72 101.56 12.62Q102.02 13.52 101.52 14.67L101.52 14.67L95.69 27.99Q94.90 29.90 93.02 29.90ZM113.18 29.97L113.18 29.97Q110.20 29.97 108.04 28.86Q105.88 27.74 104.71 25.69Q103.54 23.64 103.54 20.83L103.54 20.83Q103.54 18.09 104.67 16.04Q105.80 13.99 107.80 12.82Q109.80 11.65 112.36 11.65L112.36 11.65Q116.10 11.65 118.28 14.03Q120.46 16.40 120.46 20.51L120.46 20.51Q120.46 21.84 118.73 21.84L118.73 21.84L107.86 21.84Q108.36 26.55 113.26 26.55L113.26 26.55Q114.19 26.55 115.36 26.32Q116.53 26.09 117.58 25.51L117.58 25.51Q118.51 24.97 119.16 25.17Q119.81 25.37 120.08 25.94Q120.35 26.52 120.15 27.22Q119.95 27.92 119.12 28.43L119.12 28.43Q117.86 29.22 116.23 29.60Q114.59 29.97 113.18 29.97ZM112.54 14.71L112.54 14.71Q110.56 14.71 109.33 15.93Q108.11 17.16 107.86 19.25L107.86 19.25L116.71 19.25Q116.57 17.05 115.51 15.88Q114.44 14.71 112.54 14.71ZM130.03 29.97L130.03 29.97Q124.02 29.97 124.02 23.24L124.02 23.24L124.02 6.21Q124.02 3.95 126.25 3.95L126.25 3.95Q128.52 3.95 128.52 6.21L128.52 6.21L128.52 23.03Q128.52 26.27 131.22 26.27L131.22 26.27Q131.51 26.27 131.76 26.25Q132.01 26.23 132.26 26.19L132.26 26.19Q132.77 26.12 132.95 26.46Q133.13 26.81 133.13 27.85L133.13 27.85Q133.13 28.75 132.77 29.25Q132.41 29.76 131.58 29.87L131.58 29.87Q130.82 29.97 130.03 29.97ZM143.35 29.97L143.35 29.97Q140.62 29.97 138.60 28.86Q136.58 27.74 135.47 25.67Q134.35 23.60 134.35 20.79L134.35 20.79Q134.35 17.99 135.47 15.93Q136.58 13.88 138.60 12.77Q140.62 11.65 143.35 11.65L143.35 11.65Q146.09 11.65 148.10 12.77Q150.12 13.88 151.24 15.93Q152.35 17.99 152.35 20.79L152.35 20.79Q152.35 23.60 151.24 25.67Q150.12 27.74 148.10 28.86Q146.09 29.97 143.35 29.97ZM143.35 26.55L143.35 26.55Q145.37 26.55 146.59 25.10Q147.82 23.64 147.82 20.79L147.82 20.79Q147.82 17.91 146.59 16.49Q145.37 15.07 143.35 15.07L143.35 15.07Q141.34 15.07 140.11 16.49Q138.89 17.91 138.89 20.79L138.89 20.79Q138.89 23.64 140.11 25.10Q141.34 26.55 143.35 26.55ZM158.29 36.38L158.29 36.38Q156.06 36.38 156.06 34.12L156.06 34.12L156.06 13.99Q156.06 11.72 158.26 11.72L158.26 11.72Q160.49 11.72 160.49 13.99L160.49 13.99L160.49 14.75Q161.24 13.34 162.76 12.50Q164.27 11.65 166.21 11.65L166.21 11.65Q168.52 11.65 170.26 12.77Q172.01 13.88 172.98 15.92Q173.95 17.95 173.95 20.79L173.95 20.79Q173.95 23.60 172.98 25.67Q172.01 27.74 170.28 28.86Q168.55 29.97 166.21 29.97L166.21 29.97Q164.34 29.97 162.85 29.16Q161.35 28.35 160.56 26.99L160.56 26.99L160.56 34.12Q160.56 36.38 158.29 36.38ZM164.95 26.55L164.95 26.55Q166.97 26.55 168.19 25.10Q169.42 23.64 169.42 20.79L169.42 20.79Q169.42 17.91 168.19 16.49Q166.97 15.07 164.95 15.07L164.95 15.07Q162.94 15.07 161.71 16.49Q160.49 17.91 160.49 20.79L160.49 20.79Q160.49 23.64 161.71 25.10Q162.94 26.55 164.95 26.55ZM186.34 29.97L186.34 29.97Q183.35 29.97 181.19 28.86Q179.03 27.74 177.86 25.69Q176.69 23.64 176.69 20.83L176.69 20.83Q176.69 18.09 177.82 16.04Q178.96 13.99 180.95 12.82Q182.95 11.65 185.51 11.65L185.51 11.65Q189.25 11.65 191.43 14.03Q193.61 16.40 193.61 20.51L193.61 20.51Q193.61 21.84 191.88 21.84L191.88 21.84L181.01 21.84Q181.51 26.55 186.41 26.55L186.41 26.55Q187.34 26.55 188.51 26.32Q189.68 26.09 190.73 25.51L190.73 25.51Q191.66 24.97 192.31 25.17Q192.96 25.37 193.23 25.94Q193.50 26.52 193.30 27.22Q193.10 27.92 192.28 28.43L192.28 28.43Q191.02 29.22 189.38 29.60Q187.74 29.97 186.34 29.97ZM185.69 14.71L185.69 14.71Q183.71 14.71 182.48 15.93Q181.26 17.16 181.01 19.25L181.01 19.25L189.86 19.25Q189.72 17.05 188.66 15.88Q187.60 14.71 185.69 14.71ZM199.48 29.90L199.48 29.90Q197.17 29.90 197.17 27.60L197.17 27.60L197.17 13.99Q197.17 11.72 199.37 11.72L199.37 11.72Q201.56 11.72 201.56 13.99L201.56 13.99L201.56 15.11Q202.86 12.01 207.11 11.65L207.11 11.65Q208.66 11.47 208.84 13.41L208.84 13.41Q209.02 15.32 206.96 15.54L206.96 15.54L206.17 15.61Q201.74 16.04 201.74 20.15L201.74 20.15L201.74 27.60Q201.74 29.90 199.48 29.90Z"/></g>
</svg>