<?xml version="1.0" encoding="UTF-8"?>
<svg xmlns="http://www.w3.org/2000/svg" xmlns:xlink="http://www.w3.org/1999/xlink" width="48px" height="48px" viewBox="0 0 48 48" version="1.1">
<g id="surface1">
<path style=" stroke:none;fill-rule:nonzero;fill:rgb(0%,0%,0%);fill-opacity:1;" d="M 0 24 C 0 10.746094 10.746094 0 24 0 C 37.253906 0 48 10.746094 48 24 C 48 37.253906 37.253906 48 24 48 C 10.746094 48 0 37.253906 0 24 Z M 15.140625 15.929688 C 13.996094 15.441406 12.675781 15.964844 12.1875 17.109375 C 11.699219 18.253906 12.226562 19.574219 13.367188 20.0625 L 14.484375 20.539062 C 16.105469 21.234375 17.785156 21.75 19.507812 22.070312 L 19.507812 26.765625 C 19.507812 27.167969 19.445312 27.570312 19.3125 27.945312 L 16.621094 36.019531 C 16.226562 37.199219 16.867188 38.476562 18.046875 38.867188 C 19.226562 39.261719 20.503906 38.625 20.898438 37.445312 L 23.183594 30.582031 C 23.304688 30.226562 23.632812 29.980469 24.007812 29.980469 C 24.382812 29.980469 24.722656 30.226562 24.835938 30.582031 L 27.121094 37.445312 C 27.515625 38.625 28.789062 39.261719 29.972656 38.867188 C 31.152344 38.476562 31.789062 37.199219 31.398438 36.019531 L 28.707031 27.945312 C 28.574219 27.5625 28.507812 27.167969 28.507812 26.765625 L 28.507812 22.078125 C 30.234375 21.75 31.914062 21.242188 33.535156 20.550781 L 34.648438 20.070312 C 35.792969 19.585938 36.320312 18.261719 35.832031 17.117188 C 35.34375 15.976562 34.023438 15.449219 32.878906 15.9375 L 31.753906 16.40625 C 29.304688 17.457031 26.671875 18 24 18 C 21.328125 18 18.703125 17.457031 16.246094 16.40625 L 15.132812 15.929688 Z M 24 15 C 26.070312 15 27.75 13.320312 27.75 11.25 C 27.75 9.179688 26.070312 7.5 24 7.5 C 21.929688 7.5 20.25 9.179688 20.25 11.25 C 20.25 13.320312 21.929688 15 24 15 Z M 24 15 "/>
</g>
</svg>
